<svg xmlns="http://www.w3.org/2000/svg" xmlns:xlink="http://www.w3.org/1999/xlink" xmlns:fi="http://pattern.flaticon.com/" x="0" y="0" width="200" height="100" viewBox="0 0 700 350"><rect x="0px" y="0px" width="100%" height="100%" opacity="0" fill="#ffffff"/><defs><g transform="matrix(0.1318681389093399 0 0 0.1318681389093399 282 22)" id="L1_1"><path d="M370.5,158.498 310.5,158.498 310.5,227.498 241.5,227.498 241.5,287.498 310.5,287.498 310.5,356.498    370.5,356.498 370.5,287.498 439.5,287.498 439.5,227.498 370.5,227.498z" fill="#ffffff"/><path d="M211.5,197.498h69v-69h120v69h34.799c12.468-20,19.701-42.674,19.701-67.53C455,60.686,398.847,4.51,329.579,4.51   c-42.087,0-79.329,20.731-102.079,52.544C204.75,25.24,167.508,4.501,125.421,4.501C56.153,4.501,0,60.664,0,129.947   c0,30.118,10.612,57.752,28.299,79.376L227.5,450.499l53-64.169v-68.832h-69V197.498z" fill="#ffffff"/></g><path d="M68.449,48.757H41.99l-3.873,3.873h7.409v23.581H27.479c-5.495,0-10.11-3.783-11.412-8.878  c-0.14,0.003-0.28,0.01-0.421,0.01c-1.212,0-2.423-0.118-3.617-0.351c1.231,7.417,7.688,13.092,15.449,13.092h40.97  c8.637,0,15.664-7.026,15.664-15.663C84.112,55.784,77.086,48.757,68.449,48.757z M64.88,76.014H51.911  c-0.917,0-1.66-0.743-1.66-1.66c0-0.917,0.743-1.66,1.66-1.66H64.88c0.917,0,1.66,0.743,1.66,1.66  C66.54,75.271,65.797,76.014,64.88,76.014z M71.497,76.014h-0.644c-0.917,0-1.66-0.743-1.66-1.66c0-0.917,0.743-1.66,1.66-1.66  h0.644c0.917,0,1.66,0.743,1.66,1.66C73.157,75.271,72.414,76.014,71.497,76.014z M55.692,8.6  c-2.947-2.948-6.881-4.571-11.076-4.571c-4.195,0-8.128,1.623-11.076,4.571l-28.97,28.97C1.623,40.517,0,44.45,0,48.645  c0,4.195,1.623,8.128,4.571,11.076c3.054,3.054,7.064,4.58,11.076,4.58c4.011,0,8.023-1.527,11.076-4.58l28.97-28.97  c2.948-2.948,4.571-6.881,4.571-11.076C60.264,15.48,58.64,11.547,55.692,8.6z M23.984,56.982c-4.598,4.597-12.078,4.597-16.674,0  c-2.216-2.216-3.437-5.177-3.437-8.337c0-3.16,1.221-6.121,3.437-8.337l12.761-12.761l16.674,16.674L23.984,56.982z M50.291,30.396  l-9.17,9.17c-0.324,0.324-0.749,0.486-1.174,0.486c-0.425,0-0.85-0.162-1.174-0.486c-0.648-0.648-0.648-1.699,0-2.347l9.171-9.17  c0.648-0.648,1.699-0.648,2.347,0C50.939,28.697,50.939,29.748,50.291,30.396z M54.97,25.717l-0.455,0.455  c-0.324,0.324-0.749,0.486-1.174,0.486c-0.425,0-0.849-0.162-1.174-0.486c-0.648-0.648-0.648-1.699,0-2.347l0.455-0.455  c0.648-0.648,1.699-0.648,2.347,0C55.618,24.018,55.618,25.069,54.97,25.717z" transform="matrix(0.7133346199989319 0 0 0.7133346199989319 115 273.00000185038573)" id="L1_2" fill="#ffffff"/><g transform="matrix(0.1171875 0 0 0.1171875 287 185)" id="L1_3"><circle cx="383" cy="85" r="14" fill="#ffffff"/><circle cx="341" cy="128" r="14" fill="#ffffff"/><circle cx="426" cy="128" r="14" fill="#ffffff"/><circle cx="383" cy="170" r="14" fill="#ffffff"/><circle cx="129" cy="340" r="14" fill="#ffffff"/><circle cx="86" cy="382" r="14" fill="#ffffff"/><circle cx="171" cy="382" r="14" fill="#ffffff"/><circle cx="129" cy="425" r="14" fill="#ffffff"/><circle cx="383" cy="340" r="14" fill="#ffffff"/><circle cx="341" cy="382" r="14" fill="#ffffff"/><circle cx="426" cy="382" r="14" fill="#ffffff"/><circle cx="383" cy="425" r="14" fill="#ffffff"/><circle cx="129" cy="85" r="14" fill="#ffffff"/><circle cx="86" cy="128" r="14" fill="#ffffff"/><circle cx="171" cy="128" r="14" fill="#ffffff"/><circle cx="129" cy="170" r="14" fill="#ffffff"/><path d="M404.481,256l85.535-85.535c29.24-29.24,29.24-76.818,0.001-106.059l-42.424-42.423    c-29.308-29.308-76.746-29.312-106.058,0L256,107.518l-85.535-85.535c-29.308-29.308-76.746-29.312-106.058,0L21.983,64.406    c-29.239,29.241-29.239,76.818,0,106.059L107.518,256l-85.535,85.535c-29.239,29.241-29.239,76.818,0,106.059l42.423,42.423    c29.308,29.308,76.746,29.312,106.058,0l85.535-85.535l85.535,85.535c29.308,29.308,76.746,29.312,106.058,0l42.424-42.423    c29.239-29.241,29.239-76.818,0-106.059L404.481,256z M362.747,43.194c17.543-17.543,46.091-17.544,63.636,0l42.424,42.423    c17.543,17.545,17.543,46.092-0.001,63.636l-85.535,85.535L277.212,128.729L362.747,43.194z M43.194,149.253    c-17.544-17.544-17.544-46.091,0-63.636l42.424-42.424c17.543-17.543,46.091-17.544,63.636,0l85.535,85.535l-106.061,106.06    L43.194,149.253z M149.253,468.806c-17.543,17.543-46.091,17.545-63.636,0l-42.423-42.424c-17.544-17.545-17.544-46.092,0-63.636    l85.535-85.535l106.06,106.059L149.253,468.806z M149.94,256L256,149.941L362.06,256L256,362.059L149.94,256z M468.806,426.382    l-42.424,42.424c-17.545,17.544-46.093,17.543-63.636,0l-85.535-85.535l106.06-106.059l85.535,85.534    C486.35,380.29,486.35,408.837,468.806,426.382z" fill="#ffffff"/></g><path d="M160.324,38.56h-3.574v-5.678c0-1.381-1.119-2.5-2.5-2.5h-14c-1.381,0-2.5,1.119-2.5,2.5v5.678h-12.417v-6.341  c0-9.694-7.887-17.581-17.581-17.581H76.247c-9.694,0-17.581,7.887-17.581,17.581v6.341H46.25v-5.678c0-1.381-1.119-2.5-2.5-2.5h-14  c-1.381,0-2.5,1.119-2.5,2.5v5.678h-3.574C10.6,38.56,0,49.16,0,62.236v83.45c0,13.076,10.6,23.676,23.676,23.676h136.648  c13.076,0,23.676-10.6,23.676-23.676v-83.45C184,49.16,173.4,38.56,160.324,38.56z M68.666,32.219c0-4.18,3.401-7.581,7.581-7.581  h31.505c4.18,0,7.581,3.401,7.581,7.581v6.341H68.666V32.219z M92,146.606c-23.552,0-42.645-19.093-42.645-42.645  S68.448,61.316,92,61.316s42.645,19.093,42.645,42.645S115.552,146.606,92,146.606z M124.015,114.434  c0,0.663-0.262,1.299-0.73,1.769c-0.469,0.469-1.104,0.733-1.767,0.734l-16.515,0.015v16.514c0,1.381-1.119,2.5-2.5,2.5H81.497  c-1.381,0-2.5-1.119-2.5-2.5v-16.49l-16.49,0.015c-0.001,0-0.001,0-0.002,0c-0.662,0-1.297-0.263-1.766-0.73  c-0.469-0.469-0.733-1.104-0.734-1.767l-0.019-21.005c-0.001-1.381,1.117-2.501,2.498-2.502l16.514-0.015V74.456  c0-1.381,1.119-2.5,2.5-2.5h21.005c1.381,0,2.5,1.119,2.5,2.5v16.49l16.49-0.015c0.001,0,0.002,0,0.002,0  c1.38,0,2.499,1.118,2.5,2.498L124.015,114.434z" transform="matrix(0.32608696818351746 0 0 0.32608696818351746 117 103)" id="L1_4" fill="#ffffff"/></defs><g fi:class="KUsePattern"><pattern id="pattern_L1_1" width="350" height="350" patternUnits="userSpaceOnUse"><use xlink:href="#L1_1" x="-350" y="-350"/><use xlink:href="#L1_1" x="0" y="-350"/><use xlink:href="#L1_1" x="350" y="-350"/><use xlink:href="#L1_1" x="-350" y="0"/><use xlink:href="#L1_1" x="0" y="0"/><use xlink:href="#L1_1" x="350" y="0"/><use xlink:href="#L1_1" x="-350" y="350"/><use xlink:href="#L1_1" x="0" y="350"/><use xlink:href="#L1_1" x="350" y="350"/></pattern><rect x="0" y="0" width="100%" height="100%" fill="url(#pattern_L1_1)"/></g><g fi:class="KUsePattern"><pattern id="pattern_L1_2" width="350" height="350" patternUnits="userSpaceOnUse"><use xlink:href="#L1_2" x="-350" y="-350"/><use xlink:href="#L1_2" x="0" y="-350"/><use xlink:href="#L1_2" x="350" y="-350"/><use xlink:href="#L1_2" x="-350" y="0"/><use xlink:href="#L1_2" x="0" y="0"/><use xlink:href="#L1_2" x="350" y="0"/><use xlink:href="#L1_2" x="-350" y="350"/><use xlink:href="#L1_2" x="0" y="350"/><use xlink:href="#L1_2" x="350" y="350"/></pattern><rect x="0" y="0" width="100%" height="100%" fill="url(#pattern_L1_2)"/></g><g fi:class="KUsePattern"><pattern id="pattern_L1_3" width="350" height="350" patternUnits="userSpaceOnUse"><use xlink:href="#L1_3" x="-350" y="-350"/><use xlink:href="#L1_3" x="0" y="-350"/><use xlink:href="#L1_3" x="350" y="-350"/><use xlink:href="#L1_3" x="-350" y="0"/><use xlink:href="#L1_3" x="0" y="0"/><use xlink:href="#L1_3" x="350" y="0"/><use xlink:href="#L1_3" x="-350" y="350"/><use xlink:href="#L1_3" x="0" y="350"/><use xlink:href="#L1_3" x="350" y="350"/></pattern><rect x="0" y="0" width="100%" height="100%" fill="url(#pattern_L1_3)"/></g><g fi:class="KUsePattern"><pattern id="pattern_L1_4" width="350" height="350" patternUnits="userSpaceOnUse"><use xlink:href="#L1_4" x="-350" y="-350"/><use xlink:href="#L1_4" x="0" y="-350"/><use xlink:href="#L1_4" x="350" y="-350"/><use xlink:href="#L1_4" x="-350" y="0"/><use xlink:href="#L1_4" x="0" y="0"/><use xlink:href="#L1_4" x="350" y="0"/><use xlink:href="#L1_4" x="-350" y="350"/><use xlink:href="#L1_4" x="0" y="350"/><use xlink:href="#L1_4" x="350" y="350"/></pattern><rect x="0" y="0" width="100%" height="100%" fill="url(#pattern_L1_4)"/></g></svg>