<?xml version="1.0" encoding="UTF-8" standalone="no"?><!DOCTYPE svg PUBLIC "-//W3C//DTD SVG 1.1//EN" "http://www.w3.org/Graphics/SVG/1.1/DTD/svg11.dtd"><svg width="100%" height="100%" viewBox="0 0 512 512" version="1.1" xmlns="http://www.w3.org/2000/svg" xmlns:xlink="http://www.w3.org/1999/xlink" xml:space="preserve" xmlns:serif="http://www.serif.com/" style="fill-rule:evenodd;clip-rule:evenodd;stroke-linejoin:round;stroke-miterlimit:1.41421;"><g><path d="M256,0c-141.391,0 -256,114.609 -256,256c0,141.391 114.609,256 256,256c141.391,0 256,-114.609 256,-256c0,-141.391 -114.609,-256 -256,-256Zm0,472c-119.297,0 -216,-96.703 -216,-216c0,-119.297 96.703,-216 216,-216c119.297,0 216,96.703 216,216c0,119.297 -96.703,216 -216,216Z" style="fill:#fff;fill-rule:nonzero;"/><path d="M316.75,216.812l-44.531,0l0,-32.5c0,-9.969 10.312,-12.281 15.125,-12.281c4.781,0 28.767,0 28.767,0l0,-43.859l-32.97,-0.172c-44.983,0 -55.25,32.703 -55.25,53.672l0,35.141l-32.641,0l0,45.187l32.641,0c0,58.016 0,122 0,122l44.328,0c0,0 0,-64.641 0,-122l37.656,0l6.875,-45.188Z" style="fill:#fff;fill-rule:nonzero;"/></g></svg>