<?xml version="1.0" encoding="UTF-8" standalone="no"?><!DOCTYPE svg PUBLIC "-//W3C//DTD SVG 1.1//EN" "http://www.w3.org/Graphics/SVG/1.1/DTD/svg11.dtd"><svg width="100%" height="100%" viewBox="0 0 45 45" version="1.1" xmlns="http://www.w3.org/2000/svg" xmlns:xlink="http://www.w3.org/1999/xlink" xml:space="preserve" xmlns:serif="http://www.serif.com/" style="fill-rule:evenodd;clip-rule:evenodd;stroke-linejoin:round;stroke-miterlimit:1.41421;"><rect x="0" y="0" width="45" height="45" style="fill:#f5f5f5;"/><g><path d="M22.488,32.214c-0.248,-0.074 -4.241,-1.291 -6.34,-3.619c-2.167,-2.404 -2.133,-5.79 -2.133,-8.262c0,-2.472 0.135,-4.469 2.234,-5.18c2.1,-0.712 6.251,-2.371 6.251,-2.371l0.182,0.073c0.824,0.327 4.231,1.676 6.069,2.298c2.099,0.711 2.234,2.708 2.234,5.18c0,2.472 0.034,5.858 -2.133,8.262c-2.167,2.403 -6.352,3.623 -6.352,3.623l-0.012,-0.004Z" style="fill:#b6b6b6;"/><path d="M22.5,12.782c0,0 -4.151,1.659 -6.251,2.371c-2.099,0.711 -2.234,2.708 -2.234,5.18c0,2.472 -0.034,5.858 2.133,8.262c2.167,2.403 6.352,3.623 6.352,3.623l0,-19.436Z" style="fill:#c2c2c2;fill-rule:nonzero;"/><path d="M27.334,20.477l-2.898,0l0,-2.898l-4.001,0l0,2.898l-2.897,0l0,4.001l2.897,0l0,2.898l4.001,0l0,-2.898l2.898,0l0,-4.001Z" style="fill:#fff;"/></g></svg>