<?xml version="1.0" encoding="UTF-8" standalone="no"?><!DOCTYPE svg PUBLIC "-//W3C//DTD SVG 1.1//EN" "http://www.w3.org/Graphics/SVG/1.1/DTD/svg11.dtd"><svg width="100%" height="100%" viewBox="0 0 117 117" version="1.1" xmlns="http://www.w3.org/2000/svg" xmlns:xlink="http://www.w3.org/1999/xlink" xml:space="preserve" xmlns:serif="http://www.serif.com/" style="fill-rule:evenodd;clip-rule:evenodd;stroke-linejoin:round;stroke-miterlimit:1.41421;"><g><path d="M114.452,54.13c0,-3.975 -3.253,-7.228 -7.228,-7.228l-98.234,0c-3.975,0 -7.227,3.253 -7.227,7.228c0,3.379 2.358,6.214 5.504,6.995l9.966,47.148c0,4.368 3.573,7.941 7.941,7.941l67.166,0c4.368,0 7.941,-3.573 7.941,-7.941l10.075,-47.663c2.411,-1.174 4.096,-3.63 4.096,-6.48Zm-80.224,44.929c0,1.365 -1.117,2.481 -2.482,2.481l-0.684,0c-1.365,0 -2.482,-1.117 -2.482,-2.481l0,-29.045c0,-1.365 1.117,-2.481 2.482,-2.481l0.684,0c1.365,0 2.482,1.116 2.482,2.481l0,29.045Zm18.169,0c0,1.365 -1.117,2.481 -2.482,2.481l-0.684,0c-1.365,0 -2.482,-1.117 -2.482,-2.481l0,-29.045c0,-1.365 1.116,-2.481 2.482,-2.481l0.684,0c1.365,0 2.482,1.116 2.482,2.481l0,29.045Zm18.168,0c0,1.365 -1.116,2.481 -2.482,2.481l-0.683,0c-1.365,0 -2.481,-1.117 -2.481,-2.481l0,-29.045c0,-1.365 1.116,-2.481 2.481,-2.481l0.684,0c1.365,0 2.482,1.116 2.482,2.481l0,29.045l-0.001,0Zm18.169,0c0,1.365 -1.117,2.481 -2.481,2.481l-0.684,0c-1.365,0 -2.482,-1.117 -2.482,-2.481l0,-29.045c0,-1.365 1.117,-2.481 2.482,-2.481l0.684,0c1.365,0 2.481,1.116 2.481,2.481l0,29.045Z" style="fill:#353535;fill-rule:nonzero;"/><path d="M26.283,34.868c2.25,-15.668 15.69,-27.723 31.981,-27.723c16.291,0 29.732,12.055 31.982,27.723c0.328,5.35 7.22,4.494 7.22,0c-2.295,-19.628 -18.957,-34.868 -39.202,-34.868c-20.244,0 -36.907,15.24 -39.201,34.868c0,5.565 7.308,5.779 7.22,0Z" style="fill:#353535;fill-rule:nonzero;"/></g></svg>