<svg xmlns="http://www.w3.org/2000/svg" width="2024.089" height="648.376" viewBox="0 0 2024.089 648.376"><g transform="translate(40 -51.085)"><g transform="matrix(0.998, 0.07, -0.07, 0.998, -10.888, 152.251)" opacity="0.61"><path d="M389.65-34.329c-7.794-56.683-29.822-46.595-64.821-39.385C294.3-67.426,262.154-62.887,230.755-58.5S167.3-48.207,135.861-44.508c-16.423,2.689-29.36.5-42.329,10.8C74.1-17.907,70.69-11.655,64.162,18.833c-3.985,22.331,1.282,48.309,19,55.067,18.547,7.976,27.832-.875,45.587-6.613C158.3,57.037,193.463,52.57,224,46.281,255.98,39,288.158,35.146,319.477,29.39c29.045-5.982,77.926-7.723,70.172-63.719" transform="translate(258.595 182.617)" fill="#c42830" fill-rule="evenodd"/><path d="M343.473-38.554c-8.857-62.014-41.1-33.168-76.341-30.073-27.711,2.932-58.44,5.792-85.329,9.943C169.886-56.23,77.184-43.382,72.915-39.034c-2.821,3.357,9.808,13.246,12.358,18.272,5.886,10.584,8.319,13.553,8.406,28.106.594,10.286-.849,24.462-4.842,33.611-2.583,7.472-10.965,18.912.871,15.086C130.39,42.8,179.818,37.481,222.932,27.214c31.2-7.815,129.356-4.439,120.54-65.768" transform="translate(298.066 188.223)" fill="#dc2d36" fill-rule="evenodd"/><path d="M109.086-40.818c-4-4.034-13.308-34.729-28.432-22.594C71.994-56.772,65.386-27.655,66.059-16,67.326,5.946,78.426,15.457,93.511,2.635c6.464-5.5,21.185-37.67,15.575-43.454" transform="translate(271.368 236.63)" fill="#dc2d36" fill-rule="evenodd"/><path d="M76.6-56.522c-1.523,12.8-17.97,41.172-10.785,61.2,4.4,10.89,3.185,16,13.342,22.232,4.706,3.195,19.916,5.613,21.049-.866-.783-.533-13.522.7-20.5-2.716S69.655,5.972,68.4-2.79C65.679-23.74,74.37-42.879,83.18-59.958c22.341-4.6,22.152,5.152,28.148,4.61l1.023,4.646,3.8.606c2.631,6.4,3.89,15.158,4.326,22.7.238,4.114-.967,22.405-.927,23.09a51.462,51.462,0,0,0-6.812-52.72c-14.673-19.183-20.313-12.47-36.142.5" transform="translate(263.114 225.335)" fill="#dc2d36" fill-rule="evenodd"/><path d="M134.033,9.557c.369-6.2-1.236-2.8-3.516-6.324a4.081,4.081,0,0,1,2.157-5.895c7.278-2.711,9.685,9.946,12.533,2.586,1.373-7.119-2.738-10.037-7.519-14.53-7.057.1-14.121,2.089-21.54,2.434-4.06.187-21.13.439-24.03-.532-.006-.014-.213-13.611-12.424-11.639-1.379,5.491,2,4.857.175,10.032-1.512,4.3-4.933,5.207-9.075,4.79-3.239-3.345-.835-5.294-6.544-6.231-1.98,2.808-2.692,3.509-1.672,6.464,4.9,14.2,12.9,10.727,19.528,8.959,1.417-.38,7.165,1.825,15.26,1.992,5.167.106,13.146.223,19,.7,4.487,7.322,7.719,9.662,16.848,8.742Z" transform="translate(255.348 408.037)" fill="#c42830" fill-rule="evenodd"/><path d="M185.217,259.4c6.051-1.588,12.864,1,17.7,4.845l-11.852,9.729C185.866,269.8,182.994,265.989,185.217,259.4Zm3.3-9.857c8.172,3.029,12.394-.329,20.382,6.77C206.182,257.52,189.423,251.3,188.513,249.542Zm51.042,14.37a52.764,52.764,0,0,1,9.706.71l7.411,2.545-17.183,5.1Zm3.915-64.567c34.309,11.287,40.31,1.078,43.862,13.881,3.925,14.179-5.883,32.527-18.808,38.683C226.094,272.115,219.332,215.251,243.471,199.345Zm33.916-151.88L254.75,56.046c-2.034-8.649-1.4-26.7-.368-36.041,5.985,2.333,10.411,8.387,20.684,11.3Zm-17.28,111.57c-.143,5-2.2,6.471-6.184,10.677C254.342,164.626,253,159.84,260.107,159.035Zm-20.924,123.4c5.775-2.727,10.641-5.175,16.871-4.8,1.722,9.552,2.182,18.284.378,27.893C233.07,304.2,237.936,294.807,239.183,282.431ZM274.146,121.34l-17.326,21.8-1.3-33.684ZM256.463-74.541c.4.93,12.793,69.469,12.854,71.77C263.551-6.91,266.132-7,263.4-9.8c-5.331-5.488-1.753-.88-7.9-3.9Zm10.063,236.494c6.23.488,11.433,2.548,15.368,6.541-6.516.455-15.481,2.569-19.656,2.218C263.25,164.975,262.631,166.962,266.526,161.953ZM254.572-5.887c2.167.8,11.694,8.64,14.1,10.842,4.181,3.829,4.16,12.188,4.953,17.457-7-2.767-13.411-8.785-18.3-13.75Zm5.954,156.567c3.087-6.863,15.66-26.02,21.885-24.242.818,6-3.8,9.228-7.319,14.1C268.616,149.5,270.875,151.778,260.526,150.68Zm-5.862-75.014c4.487,4.219,9.951,12.636,16.242,18.8,13.309,13.037,14.954,12.707,10.728,20.951L254.428,98.51Zm33.139,24.7c-10.764-6.426-26.735-24.733-29.393-37,4.9-3.365,15.629-10.924,20.648-11.413Zm1.978,15.351c4.319,2.119,1.319-2,3.787,5.014l9.619,48.585c-18.159.786-1.278-3.119-30.584-15.237,4.579-5.8,8.612-11.274,13.595-17.359C298.515,121.674,285.819,123.1,289.78,115.719Zm-36.083,64.8c2.678-1.536,44.541-3.97,49.4-2.657,7.2,1.946,2.019,3.15,7.7,2.588,3.409-.336,4.114-2.078,12.164-1.913,40.969.839,26.193,11.829,30.185,56.658,1.083,12.2,5.285,41.157,4.457,51.328a89.8,89.8,0,0,1-45.1,6.278c-15.588-1.888-34.795-.9-48.691-2.979-.276-4.987,1.273-24.371,2.121-27.516,18.859-9.644,27.032-27.514,27.951-47.69C295.142,186.841,257.9,187.8,253.7,180.519Zm-133.486-296.5c-4.952-1.032-11.351-2.821-14.51,1.784-1.293,1.881-3.4,12.552-2.152,15.91,10.36-2.469,3.532-1.472,5.872-8.137L246.282-91.192c-.767,23.5,1.615,48.012.332,70.149C245.377.45,244.943,27.2,244.38,49.057c-.45,17.587,7.079,131.473,2.014,136.242-9.644,9.436-26.02-12.471-37.166-11.651-1.922,12.865,15.082,16.836,25.636,22.028-10.145,17.087-13.442,17.007-13.319,40.109.1,19.085,16.672,15.738,9.251,41.9-40.376,17.946-16.493-2.56-11.188-17.873-5.791-18.011-18.931-13.565-34.882-17.969-.639.785-7.942,17.447-8.361,20.178-1.615,10.5,1.334,3.926,1.9,11.243.6,7.753-2.862-2.2-1.763,9.958,15.808,4.423,18.4-5.016,28.023-10.3l-2.857,12.965c-8.683,3.954-5.366-3.709-10.595,5.447,3.8,9.439,4.2.562,10.442,8.942,7.329,9.84,22.933,7.6,34.907,18.043l-1.191,43.39c-9.838,5.062-9.394-3.034-12.44,5.017-3.5,8.912,25.5,5.638,20.454-5.235l.716-44.858c28.386-8.715,9.108,36.885,20.111,54.94,7.058,1.323,16.258.979,20.878-1.527.649-9.584-7.472-5.568-16.968-8.444l-4.446-61.542c21.036-.757,35.148,1.055,55.162,2.844,14.387,1.286,36.19-8.113,46.1-5.705,1.38-15.59-3.849-41.91-5.775-58.492-1.814-15.623.828-53.167-2.734-63.864l-45.778-6.053c-13.5-36.733-21.077-91.166-29.106-131.195-3.2-15.938-22.616-135.47-24.323-137.4-2.479-2.494-61.484-8.116-66.232-8.5-24.174-1.968-46.749-5.576-70.638-7.677" transform="translate(424.108 27.083)" fill="#c42830" fill-rule="evenodd"/><path d="M127.474-90.739c2.642,3.846,3.726,16.31,4.222,22.421l-8.418-3.558C122.158-79.858,120.615-86.334,127.474-90.739Zm1.63,70.9c9.281-9.828,5.182-3.583,11.648-14.644.184-.31.21-1.082.869-1.308s.578-.894.981-1.308l-.056,13.941-7.007,1.366.486,7.916-8.315-1.859c-2.847,5.627-.332,2.941-4.855,6.076C106.841-11.8,102.34-19.6,103.216-35.08,110.333-24.469,113.994-20.065,129.1-19.839ZM108-57.29c-11.192,6.313-13.086,6.96-12.733,22.405.279,12.109.891,19.47,8.309,27.738,8.529,1.221,6.227,5.517,18.068,5.256,9.731-.213,6.746-2.405,13.774,1.455,2.545,1.4-.8,2.1,4.758,2.392,7.063-11.088-4-.1.521-10.475.567-1.306,6.154-10.406,6.317-10.631,1.763-23.952,0-20.419-6.271-40.38-2.75-8.742-1.058-29.3-3.757-38.763-23.322-10.937-24.882,16.027-21.831,31.3.009.016,34.046,13.884,15.315,35.465-8.474-2.193,1.692-4.466-8.561-8.148-7.322,7.783.164,1.962-1.855,9.324C106.774-38.673,115.417-47.424,108-57.29" transform="translate(391.465 94.385)" fill="#c42830" fill-rule="evenodd"/><path d="M167.64-31.277c-9.317-3.551-16.544-.818-19.145,7.816,1.278,9.265,1.983,12.44,15.813,13.058,11.28-3.636,12.266-14.631,3.332-20.874" transform="translate(610.446 374.11)" fill="#c42830" fill-rule="evenodd"/><path d="M109.246-82c-8.209,3.26-1.982.819-6.779,6.368-6.572,7.6-2.35-2.4-6.615,6.716l5.11,5.971c10.334-8.6-4.685,3.085,9.827-13.417Z" transform="translate(394.035 171.824)" fill="#c42830" fill-rule="evenodd"/><path d="M111.533-81.171l-3.373.007-3.373,6.389,6.184,7.442,5.4-8.086-.337-4.252Z" transform="translate(430.767 175.223)" fill="#c42830" fill-rule="evenodd"/><path d="M99.4-80.377c.961,8.283,5.017,7.735,9.551,1.379-1.4-7.89-5.51-8.1-9.551-1.379" transform="translate(408.627 158.734)" fill="#c42830" fill-rule="evenodd"/><path d="M113.012-78.75l-1.232,6.079,4.574,4.657,3.358-7.625Z" transform="translate(459.515 185.175)" fill="#c42830" fill-rule="evenodd"/><path d="M101.714-104l.164,7.39c7.5-.516,3.409,2.785,7.579-4.186-3.572-3.164-1.773-3.281-7.743-3.2" transform="translate(418.135 81.302)" fill="#c42830" fill-rule="evenodd"/><path d="M102.908-109.672c.015,5.044-2.765,5.075,4.334,7.14,4.958-4.222,2.085.47,2.806-6.419Z" transform="translate(420.891 58.059)" fill="#c42830" fill-rule="evenodd"/><path d="M132.084-49.445c2.78,6.148,3.373,9.3,8.418.36-6.409-4.043-3.363-3.5-8.418-.36" transform="translate(542.982 295.312)" fill="#c42830" fill-rule="evenodd"/><path d="M103.079-106.908l-.93,5.9c9.675.526,8.6-7.779.93-5.9" transform="translate(419.923 68.281)" fill="#c42830" fill-rule="evenodd"/><path d="M141.777-48.707,137.2-50.485c-1.8,5.142-3.072,2.656,1.267,7.541,5.407-3.6,3.567-.257,3.312-5.763" transform="translate(557.137 301.371)" fill="#c42830" fill-rule="evenodd"/><path d="M94.677-76.157c2.256,5.305-2.776,6.509,7.134,3.16-2.177-5.89-2.184-5.363-7.134-3.16" transform="translate(389.206 189.512)" fill="#c42830" fill-rule="evenodd"/><path d="M108.482-112.272l-5.888.726c1.574,5.489.041,3.951,4.528,5.714Z" transform="translate(421.752 47.37)" fill="#c42830" fill-rule="evenodd"/><path d="M107.347-75.54c.961,8.283,5.019,7.735,9.552,1.379-1.4-7.89-5.515-8.1-9.552-1.379" transform="translate(441.291 178.617)" fill="#c42830" fill-rule="evenodd"/><path d="M92.855-71.277c.961,8.283,5.017,7.735,9.55,1.379-1.4-7.89-5.511-8.1-9.55-1.379" transform="translate(381.716 196.144)" fill="#c42830" fill-rule="evenodd"/><path d="M131.865-11.317c-5.792,2.639-6.213,3.081-13.543,1.372ZM107.919,91.449l-.711-38.776c19.567,6.919,7.8,9.891,34.435,6.438-.2,8.715-.895,25.118-4.988,32.817Zm38.806-48.61c-3.362,3.39-7.722,8.761-11.906,9.983-18.826,5.5-44.059-19.28-25.52-54.281L119.964-.25c2.66,7.044-2.015.53,1.649,7.843l6.137-.648c-.006-6.15.354-2.04-3.114-7.192l14.747-6.485C159.584,2.2,159.134,30.324,146.725,42.839Zm-40.38,78.325,1-21.345c10.5-1.418,23.939-2.444,34.023,1.079l1,20.291,23.289-.5c-3.854-8.511-7-6.681-15.614-8.875-2.318-21.966-8.394-52.7,6.974-65.731,6.789-10.98,5.123-27.7,5.558-45.052.353-14.279,2.443-32.115,2.213-47.18,5.9-3.135,5.913-.345,10.922-4.907-5.607-6.039-20.292-6.28-28.589-4.791l-.006,6.1c6.878,4.864,3.78.429,11.157,3.851L155.5-5.134l-7.917-6.695c5.415-7,2.128-1.772,4.025-8.042-6.809.471-6.729,3.069-10.518,3.8-7.357,1.414-12.531-8.706-34.5,5.5l5.284-26.995c14.28-5.052,9.175-2.341,10.675-7.968l-28.715.328c-.558,11.04,1.453,5.007,9.434,10.322-1,15.748-3.067,14.021-4.537,29.7-.821,8.758-2.745,14.079-3.9,21.947-1.124,7.686.329,13.788.047,21.758l5.68,5.123C98.606,56.6,100.17,68.463,99.69,81.5c-.234,6.339-2.4,13.785-2.262,17.548.271,7.462,1.66,8.94.332,17.839-9.441.936-10.443-1.755-12.1,6.152,5.76,2.992,14.6,1.721,20.689-1.879" transform="translate(352.123 276.169)" fill="#c42830" fill-rule="evenodd"/><path d="M95.3-42.245C82.382-37.364,97.148-20.6,106.013-17.128c11.05,4.326,27.252-3.4,26.325-15.619-9.342,2.157-10.357,12.6-21.511,9.311C99-26.92,100.839-36.853,95.3-42.245" transform="translate(370.901 335.243)" fill="#c42830" fill-rule="evenodd"/><path d="M94.815-40.975c4.139,3.373,1.736,3.8,7.528.062-3.6-5.563-4.853-6.825-7.528-.062" transform="translate(389.772 321.538)" fill="#c42830" fill-rule="evenodd"/><path d="M89.538-75.652c4.6-4.278,19.677-9.5,25.521-6.957C109.916-78.514,96.509-76.115,89.538-75.652ZM145.82-5.636c.732.555,3.028-1.605,2.976,5.072-.042,5.137-.525,2.285-2.359,4.1C141.148-3.779,145.482-4.995,145.82-5.636ZM84.05-67.032c3.134-1.031,40.6-11.636,40.709-11.625,4.417.436,9.392,8.693,11.458,12.74,7.112,13.935-3.654,8.761-4.331,8.765-4.861,9.41-7.855,17.327-21.037,17.294a21.165,21.165,0,0,1-13.825-5.064c-8.373-6.609-1.73-9.843-10.428-8.31C83.95-41.174,96.69-32.608,107.416-32.78c17.618-.283,18.91-6.434,27.608-16.1,2.4,7.688-4.93,13.539-11.529,17.728C108.777-21.8,72.408-35.515,84.05-67.032ZM145.8-23.539c2.971.469,7.625,3.166,7.917,7.008-3.229,3.029-2.97,2.119-8.122,3.37C143.53-18.675,142.067-19.411,145.8-23.539Zm-1.184-23.447c5.7-.7,5.1-1.475,8.875,1.41l-.164,5.7L139.8-36.995C139.754-41.093,141.758-43.2,144.612-46.985Zm1.5-7.909c-.062-5.132,2.666-13.148,7.1-15.578l.064,14.216C149.807-53.87,150.966-54.516,146.112-54.894Zm14.98,32.3c1.749-6.149,1.418.318,5.349-7.186,2.309,4.029,2.935,4.13,2.092,8.74Zm2.4-11.7c2.285,1.22.684-3.291,2.09,3Zm-2.56-7.575c-1.378-5.866-2.05-6.8,4.406-7.859a42.93,42.93,0,0,1,11.91-.557C177.612-44.444,180.944-44.717,160.928-41.864Zm77.347,8.329c5.034,3.361,6.92,9.005,10.784,13.966l6.286-2.735c-.286-7-7.605-15.709-13.155-19.725-28.32,2.407-15.987,15.777-41.071-5.192-17.894-14.959-17.067-11.441-40.086-8.917-2.145-6.143.134-19.55-1.717-28.474-10.821,1.444-8.225,7.841-15.389,14.635-5.25-3.253-10.99-11.451-14.082-17.118-5.18-.055-10.008-2.395-15.029-2.579-4.422-.162-6.339,1.029-9.406,1.227-4.913.316.3-.524-6.584-.957-3.947,4.659.5,1.9-5.256,5.476-2.423,1.507-4.372,2.061-6.75,4-9.087,7.4-10.476,3.257-15.261,7.594-.963,6.562.012,3.658,5.647,5.986-9.08,40.277,19.922,40.987,29.327,46.43L91.35,23.209c-3.446,5.34-8.317,4.447-13.824,7.745,3.726,8.01,5.15,3.465,13.543,2.487.562,4.5-.516,3.554,2.749,6.658,4.242-1.324,3.336-2.546,5.412-6.453l7.894.329c.229-7.393-2.027-7.638-7.708-10.607a173.832,173.832,0,0,1,11.048-35.1c5.527-12.456,3.568-7.1,14.033-12.876,9.415-5.2,8.191-4.89,19.38-5.256C132.92-22.3,135.952-19.43,137.245-6.175c.915,9.369-.293,19.8,8.746,25.317,14.725-2.61,8.084-17.162,8.594-27.666,7.426-2.727,17.608-4.768,23.426-11.213l-6.3-16.859,7.052-1.517c3.444,9.011-.9,20.365,2.631,29.27,5.584,2.017,9.6.453,15.432-.317,4.132,4.99,2.583,8.249,9.448,4.627.627-5.389-.393-7.325-3.471-12.65l-14.167,1.918c-3.176-7.127-2.472-23.376-.617-30.463,7.2,2.066,17.732,14.9,25.816,19.432Z" transform="translate(292.838 140.204)" fill="#c42830" fill-rule="evenodd"/><path d="M85.777-63.246l1.827,4.7c5.867-.235,7.537-.791,6.138-6.43-4.065-1.5-4.312-1.05-7.965,1.73" transform="translate(352.618 238.331)" fill="#c42830" fill-rule="evenodd"/><path d="M76.737-82.139l.729,5.776c5.233-1.12,3.2.178,5.986-3.723-3.433-3.946-1.54-3.664-6.715-2.053" transform="translate(315.458 166.673)" fill="#c42830" fill-rule="evenodd"/><path d="M80.788-77.909c4.982-.419,5.269-.881,4.384-5.592-4.759-1.186-6.554.445-4.384,5.592" transform="translate(328.358 164.129)" fill="#c42830" fill-rule="evenodd"/><path d="M47.324-68.924c7.468,1.6,7.493-4.933,15.859-5.656,4.9,2.79,6.554,9.415,1.291,11.732-6.964,3.065-9.892,3.542-3.051,10.744,6.669,7.018,2.653,6.987,5.429,13.9C81.883-.759,122.62,12.235,127.744-6.944,120.68-11.172,107.2-5.4,91.484-17.2,80.639-25.348,77.45-32.182,71.035-43.207,64.74-54.025,83.181-57.992,74.334-76c-8.681-17.663-28.458.432-27.011,7.071" transform="translate(194.232 165.567)" fill="#c42830" fill-rule="evenodd"/><path d="M79.319-38.621c-6.9-.359-10.3,9.644-16.951,9.166-5.112-2.174-8.081-4.43-8.714-9.643,4.549-8.307,15.871-5.4,15.432-12.448-.519-8.314-12.327-.374-17.5-4.261-6.755-5.082-3.514-13.3,3.9-18.046,9.384-6,10.228-1.994,20.256-2.382l3.593-5.929c-10.408-6.242-24.21,1.669-31.129,4.912-6.138,2.877-6.838,6.522-8.013,12.439-1.15,5.794,1.955,8.032,4.38,12.324C49.7-43.422,40.348-34.2,52.617-26.113c9.8,6.454,27.674-2.373,26.7-12.508" transform="translate(164.241 161.563)" fill="#c42830" fill-rule="evenodd"/><path d="M43.3-84.581l1.634,7.558c6.486.452,2.87.174,8.584-1.578,3.128-6.482,3.221-7.322-4.124-9.918C45.74-85.384,45.565-86.8,43.3-84.581" transform="translate(178.021 145.018)" fill="#c42830" fill-rule="evenodd"/><path d="M47.386-84.617l1.634,7.56c6.486.452,2.87.174,8.582-1.578,3.129-6.483,3.222-7.323-4.123-9.918-3.659,3.134-3.833,1.715-6.093,3.936" transform="translate(194.8 144.877)" fill="#c42830" fill-rule="evenodd"/><path d="M127.793,46.582c-2.039-9.444-1.4-33.856.414-43.411C141.291-1.487,168.133-5,177.619,6.2c2.126,9.229,3.445,48.318-5.622,52.409C163.2,62.581,135.771,52.415,127.793,46.582Zm75.058-4.63c-.925,6.967-10.7,12.481-17.924,13.288l1.733-17.814C192.456,37.333,198.252,38.312,202.852,41.952Zm-.363-87-12.767,2.622C193.632-46.938,197.577-48.262,202.489-45.049ZM188.01,20.968c9.445,3.773,19.115-1.023,26.633,2.618-3.307,6.917,2.791-1.249-11.878,6.937-2.254,1.256,1.308.171-3.532,1.719-.138.045-3.879.719-4.186.761a34.367,34.367,0,0,1-8.213.306c-.869-8.551.649-23.493-1.114-30.279-2.535-9.789-11.673-8.739-19.738-11.2,1.324-10.931,6.762-19.207,13.666-27.551,9.568.37,31.693-5.262,32.521-5.1,7.988,1.56,15.409,15.319,15.915,23.671C229.7,9.552,199.346,9.313,188.01,20.968ZM226.27,28.8c-.6-.136-2.06-2-.624-1.276C227.026,28.222,229.2,29.463,226.27,28.8Zm-4.492-74.721c6.787-4.117,16.7-6.29,20.628-12.8-6.358,1.2-26.945,8.7-28.248,8.72-9.343.154-22.237-13.53-45.6,16.76-6.711,8.705-8.152,14.861-8.315,25.517C146.1-7.524,132.066-5.046,120-.114c-2.213,6.977-4.273,46.076-.649,51.679C124.8,60,150.348,65.64,160.089,66.394c37.11,2.873,55.249-26.948,56.117-27.5,2.193-1.392,17.05-4.865,21.425-6.1-1.094-13.262-6.552-10.868-12.966-20.3C233.226.425,237.514-2.458,236.757-18.741c-.731-15.616-8.034-17.678-14.98-27.179" transform="translate(482.538 267.51)" fill="#c42830" fill-rule="evenodd"/><path d="M131.047-50.317c3.772,5.22,5.775,4.42,9.251-.667-3.409-2.411-6.087-4.787-9.251.667" transform="translate(538.719 288.423)" fill="#c42830" fill-rule="evenodd"/><path d="M134.684-51.48c.245,4.791-1.457,1.934,3.026,4.979,6.046-3.2,3.107.08,4.385-5.743-3.337-1.338-4.385-1.875-7.411.764" transform="translate(553.175 289.575)" fill="#c42830" fill-rule="evenodd"/><path d="M131.571-32.9c2.918-2.146,10.84,6.169,19.023-3.406,4.257-4.981,3.25-4.424,5.8-10.072,2.607-5.765,6.624-4.94,6.266.682-.47,7.288-13.319,26.621-24.931,20.668-2.331-1.195-6.481-5.7-6.159-7.872" transform="translate(540.802 302.012)" fill="#c42830" fill-rule="evenodd"/><path d="M156.411-31.136c-9.317-3.551-16.549-.818-19.15,7.816,1.283,9.265,1.988,12.44,15.818,13.058,11.28-3.636,12.266-14.631,3.332-20.874" transform="translate(564.264 374.687)" fill="#c42830" fill-rule="evenodd"/><path d="M45.187-68.331l1.608,1.75Z" transform="translate(185.76 228.007)" fill="#c42830" fill-rule="evenodd"/><path d="M40.325,43.883,32.075,69.289c-19.058-2.441-10.6-15.939-7.545-31.967ZM55.656-52.533c12.62.9,27.037,34.6,25.092,48.581C75.59,33.164-1.547,44.5,8.765-23.3c2.242-14.726,3.99-16.546,17.814-20.437C29.592-44.589,55.426-52.549,55.656-52.533Zm29.932,106c-2.4,9.189-10.147,1.5-11.974,12.493,9.4,6.354,9.744-8.436,11.529,31.18L57.75,97.048c-1.368-6.138-.208-9.53-5.578-13.292-6.6-4.62-12.055-1.92-10.5-5.366l14.4,1.815,3.3,12.238c8.1,1.047,9.372.226,6.205-6.027-2.909-5.745-2.2-8.607-5.307-14.931L38.749,69.208,45.9,45.826Zm19.483,121.805c4.933,1.868,7.2,3.576,8.827,8.073-4.178,12.742-13.459,4.171-17.269-3.744Zm70.476-16.356c4.975.057,19.9-8.649,25.537.545-3.123,2.119-56.762,2.855-65.159.43-10.008-2.892-11.595-1.35-21.588-2.179-9.321-17.853-1.039-143.846,2.157-178.02.749-8.016-1.714-20.2,2.4-26.473,5.378,2.856,2.46,5.118,1.244,24.169-.522,8.16-.852,16.765-1.6,24.756-2.453,26.274-7.4,140.387,1.185,153.249ZM25.013-55.135C9.429-51.668,2.417-31.464,1.338-16.357-.547,10.006,7.094,16.466,20.525,29.45c-4.451,10.742-7.849,30.1-5.927,41.506,4.857,5.442,6.145,1.933,9.275,9.181-6.341.906-10.182-2.357-12.958,2.779-5.833,10.792,25.1,3.652,38.183,8.916l4.833,13.593c9.155,2.114,38.11-1.992,47.437,1.9,1.636,3.109,1.728,43.422,6.853,58.269L123.278,168c2.792,10.731,2.5,10.448.573,13.368-6.7-1.353-7.684-14.059-25.676-17.385-6.023,11.09-12.841,15.882-5.371,26.439,6.977,9.86,17.928,10.261,24.823-.4,24.768-.675,13.249-1.148,14.977-18.514,14.348-3.5,69.229,1.043,75.619-3.1,1.317-5.284.906-13.892-2.232-18.267-11.993-6.592-67.518,1.211-80.347-3.447-12.8-8.884,3.492-195.18,1.688-197.832-4.848-3.523-8.629-5.43-14.648-1.686-3.989,6.254-8,129.529-10.334,149.647L89.681,98.1l-.453-27.33c4.672-1.678,2,2.6,6.083-3.008-1.9-5.688-.534-3.357-5.705-6.851,4.458-3.292,1.982.368,4.139-4.412-8.271-11.793,1.537-11.135-20.587-13l-20.5-4.506c-9.176-4.03-3.455.712-5.027-4.893,5.129-7.82,30.544-2.78,37.682-35.127,6.063-27.465-14.741-43.09-18.6-52.926C74.564-58.819,77.577-57.3,77.2-66.474c-11.025,2.951-14.386,6.4-26.512,4.294-13.909-2.421-14.425,3.345-25.67,7.045" transform="translate(4.334 235.64)" fill="#c42830" fill-rule="evenodd"/><path d="M12.055-36.131c-17.455,1.4-11,74.424-10.381,86.7l6.117,2.977c4.319,2.644,6.357,5.536,11.85,1.168.062-11.541-9.058,1.679-11.322-14.54-1.061-7.6-.678-17.915-.678-26.043,0-9.394-.135-16.4,1.117-25.658.736-5.443,3.607-20.7,3.3-24.607" transform="translate(0 360.376)" fill="#c42830" fill-rule="evenodd"/><path d="M26.925-12.45C31.251-8.9,31.686-9.3,32.64-4.036,26.5,1.5,17.418,1.324,12.783-5.426,14.083-13.287,19.113-12.351,26.925-12.45ZM37.16-11.035c-6.062-8.637-8.5-12.4-20.283-9.123C7.609-17.581.713-11.024,6.153-.836c9.346,17.5,43.208,7.187,31.008-10.2" transform="translate(17.385 421.215)" fill="#c42830" fill-rule="evenodd"/><path d="M10.927-58.418C-.63-53.948,6.71-29.918,14.753-24.539c9.243,6.181,32.284-1.1,36.226-10.687-9.542-3.568-19.578,9.3-30.46,5.043C6.5-35.671,15.536-52.191,10.927-58.418" transform="translate(20.299 268.76)" fill="#c42830" fill-rule="evenodd"/><path d="M36.681-17.2c-7.3-1.144-16.875-3.922-23.667-1.043C8.713-6.16,31.716-8.513,40.209-8.139c-.547-7.922-.358-1.725-3.528-9.062" transform="translate(51.318 428.708)" fill="#c42830" fill-rule="evenodd"/><path d="M10.465-30.591c-7.389.942-5.727,4.242-5.011,12.466C5.933-12.618,5.326-7.75,9.316-5.038c4.8-5.311,2.272-18.656,1.149-25.553" transform="translate(19.636 383.151)" fill="#c42830" fill-rule="evenodd"/><path d="M12.168-30.247c-6.489,2.131-5.23,20.766-.6,22.437,3.1-4.367,3.874-18.518.6-22.437" transform="translate(31.633 384.564)" fill="#c42830" fill-rule="evenodd"/><path d="M13.872-28.286C9.2-24.654,8.083-16.964,12.3-12.3a13.59,13.59,0,0,0,1.574-15.983" transform="translate(39.781 392.628)" fill="#c42830" fill-rule="evenodd"/><path d="M8.836-61.121c-1.9,4.114-2.776,1.541.029,6.858,5.362-1.768,3.122-.227,5.04-4.748Z" transform="translate(29.066 257.644)" fill="#c42830" fill-rule="evenodd"/><path d="M14.106-55.346c3.842-3.688,3.294-.359,1.265-6.411-6.682.029-5.516,4.721-1.265,6.411" transform="translate(43.734 255.031)" fill="#c42830" fill-rule="evenodd"/><path d="M65.109-34.84c-3.416-5.108,2.124-5.859,1.411-15.277-.354-4.653-1.917-2.292-1.644-5.756s3.616-4.172,6.032-2.3c7.271,5.642.6,23.081-5.8,23.329" transform="translate(263.041 265.6)" fill="#c42830" fill-rule="evenodd"/><path d="M69.775-34.009c-5.249-2.889-4.556-.01-3.053-7.228.322-1.543,1.105-3.5,1.043-4.675-.114-2.179-.784-3.834-.449-6.245,9.155-.76,8.56-1.323,8.032,6.4-.313,4.56-.794,9.354-5.573,11.752" transform="translate(269.819 292.791)" fill="#c42830" fill-rule="evenodd"/><path d="M50.557-10.613c1-1.427,1.453-.5-.188-2.1C48.918-11.409,48.907-11.45,50.557-10.613Zm-.311,2.275c.13,2.784.325,6.174,2.416,8.238,4.006-.523,26.953-5.891,29.26-7.413-.405-5.989-10.19-4.908-15.117-3.678-4.522,1.13-5.8,3.427-7.863,3.816C53.122-6.288,54.415-7.091,50.246-8.338ZM104.9,60.688c.588-3-2.1-14.674-4.336-17.657-5.8-7.712-.724-1.984-1.113-8.138-.133-2.111-2.466-6.823-4.124-8.567l-8.461,1.916c-1.911,3.251.457,1.974-1.293,5.037C83.851,36.285,84.918,35.6,85.4,39c.836,5.851.239,6.566.4,12.116C86.243,66.041,90.224,61.717,104.9,60.688Zm.312-70.648c3.881.411,18.863-1.762,21.763-3.051,3.642-1.618,11.622-.043.416-13.841-3.145.316-9.059,2.835-12.284,4.123-3.768,1.5-3,.232-4.837,3.541-1.6,2.883-2.164.588-5.427,2.58ZM93.234-5.717c.963,3.18-2.2.4,1.392,7.041,1.874,3.467,5.94,11.61,8.171,13.093,4.95,3.288.45,3.743,2.5,6.933,2.378,1.188,11.975-2.618,15.254-3.959,25.665-10.5,27.542-1.35,22.813-11.8-1.4-3.1-2.829-9.588-5.2-12.184-2.287-2.5-11.632,1.99-15.621,2.646C98.514.014,97.087.347,96.19-9.79c-.271-3.055-.262-10.6,1.184-14.036l25.944-11.429c-1.668-1.937-5.86-7.544-7.912-8.559L81.138-24.822c.675,3.593,4.169,7.68,5.02,10.579C87.393-10.032,89.759-8.6,93.234-5.717Zm87.283-8.042L169.4-16.454c-2.945,5.956-.172,24.985-1.462,29.272-1.259,4.188-3.116,9.95-3.332,14.925-.184,4.223-1.439,4.339-1.762,6.531-.454,3.093,2.683,3.609-1.6,6.147-2.508,1.286-38.534,4.066-41.307,3.539-2.809-.535-6.761-3.212-10.57-1.617.6,3.353.832,4.98,1.159,8.371.9,9.321,5.61,10.07,4.513,22.274l3.17,40.108c3.849.459,6.873-1.508,10.867-2.145,17.891-2.445,8.8,10.72-2.334,9.119-3.721,1.4-10.1,1.2-13.388,1.113-4.879-3.69-2.007-3.573-2.06-8.979a146.517,146.517,0,0,0-.84-14.744c-1.762-14.5,0-15.234-6.932-27.852L89.591,71.365c-2.144,3.342.436,13,1.345,16.627,1.415,5.65,1.043,12.093,2.082,17.472.918,4.762,3.8,16.051-2.954,17.948-3.024.85-19.216.677-21.345-.989l1.184-6.377c8.806-3.971,15.738,3.984,16.722-8.4.994-12.5-8.439-34.362-7.681-43.251.378-4.451-.7-18.063-2.172-21.7-4.827,3.044-8.026,8.656-10.932,12.6-3,4.065-2.427,2.6-3.978,7.44-.807,2.514-3.633,4.782-6.508,3.076-6.169-4.988,16.939-29.192,19.755-34.374-.768-10.5-24.832-1.12-32.026-13.991l4.59-3.148,9.621,4.4L55.98,13c7.061-1.878,9.155,4.456,17.655,7.019,5.624,1.7,18.409-.427,20.626-4.068-.755-4.078-6.362-2.257-10.027-3.357-.77.826-3.868,8.151-8.038,1.5-.375-5.881,6.62-3.383,9.1-3.843,2.618-2.967,4.476-5.568.948-8.59-3.707-.539-15.1,2.9-19.41,4.022C57.161,8.2,57.873,7.184,50.5,12.893c-1.9.136-8.737-1.13-9.609-2.2-4.261-5.242,1.065-6.882,2.735-9.208-.139-4.175-4.24-12.258-3.032-16.488C50.75-50.585,59.774-40.074,67.34-52.289c3.722-.9,6.141-1.162,10.456-2.359,7.9-2.192,1.816-1.943,10.461-1.276,5.788.446,3.693-1.432,11.641.842,8.427,2.409,4.4,3.31,8.778,5.966,2.857-.646,4.169-3.106,9.011-3.129,3.309-.016,3.579,3.274,6.639,4.5,3.659-.414,10.222-5.78,14.574-2.585,4.134,7.46-4.21,8.209-9.679,9.372l9.536,18.36c2.507,6.793,2.157,2.06,4.984,5.207,1.947,5.275-1.7,4.969,2.108,10.047a30.942,30.942,0,0,1,4.336,8.949c1.577,5.117,5.14,9.63,4.93,14.57-.175,4.116,1.219,1.227.74,3.167-4.608,1.737-15.612,1.333-25.527,4.029-1.952.531-20.8,7.79-22.636,8.8,1.63,4.93,29,4.147,35.413,3.573,7.078-.635,13.183-1.432,13-8.6-.181-6.974.6-1.921,1.889-6.534.191-.687,1.5-19.044,2.889-25.581l-.249-12.51c-.414-3.1-1.294-.921-1.505-3.393-.432-5.016,9.136-4.312,13.093-2.591,4.744,2.065,12.519,1.181,8.3,9.7" transform="translate(161.439 277.079)" fill="#c42830" fill-rule="evenodd"/><path d="M77.954-44.063c-1.852.543-3.879,1.879-7.77-1.6-.934-.836,0,.158-.5-.681-2.714-4.571-8.077-3.183-10.43-5.936,1.547-2.345,7.016-3.506,9.67-2.209,3.386,1.656,4.457.852,8.433,4.589,2.148,2.019,1.711,3.417.6,5.838" transform="translate(243.585 282.688)" fill="#c42830" fill-rule="evenodd"/><path d="M68.764-51.613c-3.476,1.429-.962-.1-3.907,2.076-2.25-2.644-7.437-4.24-3.5-8.575.608-.232,6.438-.694,7.762-.772a34.4,34.4,0,0,1-.356,7.271" transform="translate(246.344 266.843)" fill="#c42830" fill-rule="evenodd"/><path d="M129.048-93.933c24.613,26.97-14.889,54.171-36.8,46.607-10.891-3.76-30.818-11.2-25.265-26.261,8.325-22.575,27.464,2.821,32.287,5.2C109.023-78.013,105.417-92.425,129.048-93.933Zm-21.06,67.349c5.056-8.087,1.759-7.451,10.831-13.526,5.957-3.988,8.3-6.683,13.737-11,27.981-22.207,16.919-62.241-7.232-56.665-15.115,3.491-19.008,12.128-27.942,21.783-27.232-17.541-49.587,6.547-44.389,28.254,3.586,14.973,42.8,31.189,54.995,31.153" transform="translate(214.739 63.699)" fill="#c42830" fill-rule="evenodd"/></g><g transform="translate(1431.111 189.992) rotate(3)" opacity="0.61"><path d="M140.3-90.112l-1.922,1.665Z" transform="translate(417.76 172.641)" fill="#c42830" fill-rule="evenodd"/><path d="M141.658-100.4c-4.4,4.606-7.05-.116-12.994,3.224-2.189,4.281-.642,9.846,3.848,9.1,5.944-.994,8.116-2,6.39,6.373-1.681,8.163,1.021,6.287,1.926,12.576,4.918,34.066-17.386,62.278-28.57,50.748,3.072-6.322,14.506-8.361,20.374-24.164,4.053-10.908,3.456-17.33,3.353-28.277-.1-10.742-14.162-5.105-15.429-22.232-1.244-16.8,19.406-12.82,21.1-7.344" transform="translate(327.403 120.675)" fill="#c42830" fill-rule="evenodd"/><path d="M134.535-66.64c4.517-3.446,10.845,2.235,15.148-1.182,2.577-3.936,3.679-6.937,2.007-11.008-6.421-3.92-12.9,3.411-15.442-1.9-3-6.265,8.183-5.962,10.109-11.161,2.519-6.8-2.979-11.259-9.9-11.273-8.758-.018-7.714,3.278-14.648,7.625l-4.816-2.64c4.522-9.324,17.039-9.962,23.018-10.8,5.306-.749,7.251,1.565,10.426,5.311,3.108,3.665,1.909,6.72,2,10.952.192,8.927,10.225,11.3,5.186,22.813-4.027,9.2-19.66,11.053-23.085,3.263" transform="translate(343.761 106.891)" fill="#c42830" fill-rule="evenodd"/><path d="M125.145-111.92l1.935,6.23c-4.2,3.318-1.868,1.449-6.435,2.818-4.722-3.251-5.128-3.817-1.208-9.092,3.737.584,3.282-.522,5.708.045" transform="translate(343.015 96.628)" fill="#c42830" fill-rule="evenodd"/><path d="M121.966-109.79l1.94,6.229c-4.2,3.322-1.873,1.449-6.439,2.818-4.722-3.251-5.128-3.817-1.2-9.088,3.732.584,3.278-.526,5.7.04" transform="translate(332.023 103.997)" fill="#c42830" fill-rule="evenodd"/><path d="M187.01,207.455c.167-3.2-1-15.716.36-17.035,3.7-3.6,29.2,7.264,14.888,27.788C198.029,224.27,186.425,218.651,187.01,207.455Zm2.3-31.359c-3.376-13.252,9.269-13.753,17.877-12.911,7.382.723.961,3.732.373,10.474-.211,2.408-1.121,12.876-2.14,14.132ZM234.411,94.21c36.292-4.152,16.088,76.3-33.236,57.584-17.784-6.747-22.5-33.169-14.727-48.1,9.689-18.608,3.965-6.209,19.8-7.244C217.371,95.726,223.4,95.47,234.411,94.21Zm-32.186-8.243c1.06-1.667,6.91-3.284,9.409-2.96,5.18.671,4.272-2.777,8.574-1.958,3.74.713,6.383.065,10.191,1.249,2.063.642,6.673,2.4,6.621,4.716-2.71.039-6.373.575-8.11.56-2.873-.025-5.488-.705-9.139-.516-4.613.238-4.06-.574-9.125.86C209.077,88.362,203.409,87.084,202.225,85.967ZM404.581-48C417.7-51.722,423.22,14.2,392.973,6.787,372.876,1.858,376.987-40.183,404.581-48ZM94.8,8.2c5.244-16.574,6.018-31.093,4.964-48.8C98.4-63.485,93.3-68.828,122.027-65.37c31.835,3.833,76.382,2.8,109.971,4.716,18.327,1.043,36.168,3.174,54.395,4.481,15.481,1.11,39.421,4.9,53.142,4.69,9.311-.144,18.086,1.431,27.339,1.763,8.673.312,20.066-1.545,12.3,8.583C368.921-27.764,372.033-9.568,374.4,5.994l-.134-1.982ZM80.251-66.608C95.764-68.077,92.26-31.2,91.511-21.62,90.139-4.11,84.268,16.511,61.859,2.987,45.311-7,46.236-24.1,49.737-40.524,55.167-65.978,57.708-64.472,80.251-66.608ZM219.7,17.111c3.554-3.767,93.746-5.6,105.462-4.329,21.449,2.327,37.243,2.325,57.943,3.822,21.386,1.547,27.928,2.051,36.03-20.386,5.5-15.217,6.631-38.847-6.76-51.366-16.379-15.317-25.1,2.214-46.224-.272-80.993-9.533-162.7-12.935-243.695-16.766C78.488-74.265,48.758-94.61,38.693-35.9,31.73,4.7,62.907,23.431,99.105,18.394c20.252-2.82,42.744-1.794,63.631-2.048,10.13-.123,20.179.008,30.328.566,23.792,1.308,7.326,1.443,5.516,9.055l-.415,2.066,17.791,4.4L214.8,72.756c-20.582,6.687-26.266,9-36.6,29.7-4.61,9.231-4.309,18.956-2.182,29.02,2.316,10.959,7.071,16.169,9.277,22.724-4.726,3.664-17.708,12.011-16.325,17l-.265.743c2.892,7.417,12.311,3.917,11.749,19.347-.294,4.678.5,23.675.187,24.645-3.1,9.528-.413,29.617-3.29,39.113-2.158,1.695-21.888-.828-8.752,11.094l4.177-.109,12.5-5.7,1.1-32,9.393.211,5.257,1.857c6.514,10.964-5.255,34.825,8.825,36.053,4.165.364,9.5,2.221,12.087-1.287l.7-1.823L220.2,259.4l-11.185-1.486,1.066-55.99c2.848.028,12.142,8.514,15.528,10.014l4.139-1.71c.832-4.6-1.136-10.177-10.1-14.694-8.8-4.434-7.413-5.772-6.368-15.031,1.869-16.564,12.592-15.147,24.069-21.375,10.211-5.541,15.636-18.084,20.1-28.371,6.458-14.9.206-28.476.78-35.877l20.819,2.612.988-5.821L223.688,73.053c-.4-3.544,1.157-33.869,1.4-39.929l2.581-.22c1.426.179,9.241,2.828,9.841,3.813l5.09-11.077-3.645-4.769-.049,2.05Z" transform="translate(69.533 217.086)" fill="#c42830" fill-rule="evenodd"/><path d="M110.785-16.4c.07-.053,25.313,1.69,28.215,1.6,16.845-.53,10.453,7.933,13.585,30.666,1.866,13.527,1.028,11.672-11.674,12-12.275.316-36.82,5.084-36-11.386C105.462,5.341,103.332-14.321,110.785-16.4Zm47.245,2.212c-4.046-7.766-12.366-6.061-26.565-7.186-27.94-2.213-31.234-.464-32.176,5.188C97.139-5.008,98.9,3.649,98.3,13.145c-1.617,25.786-16.81,1.868-20.655,13.181-4.422,14.506,58.208,11.9,66.079,11.259,12.118-.989,18.249.619,17.063-13.286-.251-5.464-1.051-35.212-2.758-38.486" transform="translate(206.896 407.212)" fill="#c42830" fill-rule="evenodd"/><path d="M67.163-64.93c13.233-4.233,5.111,55.808-12.123,41.1-7.6-6.482-6.01-16.243-3.764-24.292C55.846-64.5,54.716-60.948,67.163-64.93ZM80.409-57.7c.358-15.373-22.616-21.646-29.557-11.831-7.683,10.864-12,28.034-10.04,41.638C42.539-15.925,61.5-8.285,71.506-20.721c9.149-11.374,8.592-23.62,8.9-36.979" transform="translate(78.623 227.536)" fill="#c42830" fill-rule="evenodd"/><path d="M75.985-34.738C69.612-32.156,68,1.8,101.726-3.009c19.73-2.815-10.634-8.166-14.18-9.968C75.8-18.947,84.821-38.318,75.985-34.738" transform="translate(189.281 362.677)" fill="#c42830" fill-rule="evenodd"/><path d="M82.262-29.1c1.229.386,3.819.353,5.667.845.889-2.374,2.008-1.857.451-5.165-1.641-3.487-8.135-3.921-7.7-.3.349,2.912,1.729,1.254,1.8,3.233,0,.049-.288.134-.216,1.384" transform="translate(218.09 358.978)" fill="#c42830" fill-rule="evenodd"/><path d="M111.674-23.567c-2.362-12.337-9.811-1.3-10.111-.938-2.361,2.873-14.557,13.2-5.051,15.7,4.3.421,4.97-1.591,6.263-3.845,6.716-11.719,5.305-4.964,8.9-10.919" transform="translate(260.566 382.681)" fill="#c42830" fill-rule="evenodd"/><path d="M97.911-20.905c-1.9,6.992,1.154,8.609,7.4,5.7,2.141-1,5.162-.511,6.749-1.151,1.378-.555,2.261-2.661,2.39-3.752-1.931-5.373-5.69-5.607-16.542-.8" transform="translate(275.836 400.176)" fill="#c42830" fill-rule="evenodd"/><path d="M98.543-13.972c3.156,3.577,8.5,2.2,13.624,3.416.094.021,10.336-1.439,4.624-7.545-2.47-2.65-6.724-.305-9.016.019-6.559.925-7.964-2.534-9.232,4.11" transform="translate(279.955 417.424)" fill="#c42830" fill-rule="evenodd"/><path d="M80.723-28.782c-1.078-.727-2.73-2.807-4.286-3.959,1.159-2.243.057-2.8,3.482-3.7,3.611-.953,8.131,3.927,5.2,5.928-2.355,1.609-2.036-.563-3.528.665-.037.029.09.314-.871,1.067" transform="translate(203.488 357.873)" fill="#c42830" fill-rule="evenodd"/><path d="M100.624-89.283c4.707-3.416.628-6.069,4.9-14.354,2.111-4.094,2.415-1.4,3.565-4.633s-1.213-5.07-3.859-4.232c-7.962,2.528-9.561,20.717-4.605,23.219" transform="translate(277.397 94.486)" fill="#c42830" fill-rule="evenodd"/><path d="M101.316-89.486c4.271-3.059,3.866-.143,2.134-7.367a30.973,30.973,0,0,1-1.181-4.678c-.039-2.2.424-3.884-.011-6.3-7.814-.5-7.347-1.088-6.41,6.671.552,4.584,1.263,9.4,5.468,11.674" transform="translate(268.884 110.443)" fill="#c42830" fill-rule="evenodd"/><path d="M208.78-65.7c.067,2.809.116,6.229-1.53,8.366-3.429-.411-23.232-5.155-25.288-6.622C181.931-70,190.3-69.2,194.555-68.1c3.906,1.012,5.133,3.286,6.912,3.616C206.47-63.551,205.324-64.323,208.78-65.7Zm-42,71.08c-.691-3.009.852-14.838,2.564-17.9,4.428-7.934.49-2.02.428-8.228a21.3,21.3,0,0,1,2.961-8.745l7.3,1.685c1.828,3.22-.263,2,1.414,5.036,1.65,2.977.7,2.314.5,5.753-.339,5.916.214,6.617.424,12.211C182.939,10.235,179.286,6,166.778,5.38Zm-4.722-71.134c-3.264.526-16.111-1.231-18.653-2.448-3.193-1.525-9.859.29-1.222-13.926,2.684.227,7.861,2.6,10.675,3.8,3.3,1.4,2.564.147,4.33,3.425,1.534,2.858,1.873.531,4.767,2.444Zm10.426,3.929c-.62,3.233,1.891.334-.736,7.13-1.373,3.544-4.308,11.861-6.109,13.419-3.991,3.455-.147,3.782-1.686,7.054-1.944,1.264-10.323-2.293-13.19-3.549-22.43-9.836-23.446-.57-20.1-11.226,1-3.162,1.8-9.738,3.643-12.418C136.09-64,144.3-59.748,147.724-59.2c20.637,3.3,21.872,3.591,21.993-6.644.036-3.081-.446-10.684-1.891-14.1L145.1-90.7c1.293-2,4.495-7.768,6.172-8.847l30.269,18.14c-.348,3.639-3.055,7.853-3.594,10.8C177.164-66.338,175.247-64.831,172.482-61.826ZM97.934-67.417,107.2-70.45c2.874,5.913,1.721,25.155,3.085,29.435,1.331,4.18,3.27,9.929,3.769,14.933.424,4.248,1.494,4.328,1.9,6.527.58,3.1-2.047,3.71,1.744,6.143,2.207,1.225,32.94,2.988,35.259,2.379,2.35-.619,5.534-3.429,8.865-1.931-.29,3.393-.388,5.038-.455,8.463-.178,9.412-4.125,10.3-2.421,22.56l-.161,40.479c-3.237.573-5.926-1.321-9.351-1.848-15.335-1.948-6.787,11.048,2.551,9.117,3.246,1.307,8.646.913,11.429.736,3.906-3.857,1.476-3.656,1.182-9.1-.254-4.621-.392-10.5-.218-14.871.58-14.652-.963-15.34,4.125-28.247l11.928,1.369c2.029,3.3.45,13.106-.094,16.783-.843,5.73-.12,12.207-.664,17.655-.477,4.821-2.212,16.272,3.639,17.99,2.622.768,16.343.129,18.046-1.611l-1.409-6.387c-7.719-3.747-13.1,4.465-14.711-7.975-1.632-12.559,4.99-34.844,3.786-43.775-.6-4.47-.54-18.209.477-21.912,4.285,2.927,7.349,8.487,10.064,12.371,2.8,4.007,2.221,2.553,3.844,7.379.843,2.508,3.385,4.711,5.712,2.911,4.918-5.2-16.209-28.912-18.925-34.049-.009-10.6,20.994-1.842,26.287-15.009l-4.094-3.038-7.884,4.708.754-5.782c-6.1-1.689-7.482,4.75-14.532,7.575-4.664,1.869-15.643.1-17.752-3.5.384-4.128,5.253-2.455,8.294-3.669.7.809,3.795,8.1,6.912,1.277-.054-5.933-5.828-3.217-7.96-3.609-2.408-2.912-4.152-5.478-1.347-8.623,3.108-.65,12.99,2.485,16.717,3.492,8.365,2.261,7.7,1.26,14.314,6.8,1.619.084,7.34-1.388,8.013-2.494,3.282-5.4-1.338-6.9-2.9-9.194-.143-4.21,2.827-12.464,1.534-16.692-4.86-28.619-18.269-31.544-25.043-36.775-9.556-2.368-17.453-4.477-26.853-.892-7,2.667-4.464,2.475-8.009,5.275-2.466-.571-3.732-3.01-7.844-2.894-2.8.08-2.827,3.4-5.347,4.722-3.13-.312-9.034-5.525-12.526-2.181-3.037,7.63,4.089,8.143,8.8,9.159l-6.93,18.76c-1.7,6.912-1.7,2.14-3.9,5.387-1.315,5.369,1.752,4.954-1.155,10.18a33.17,33.17,0,0,0-3.112,9.135c-1.012,5.2-2.511,6.593-2.02,11.561.767,7.777,9.173,6.654,20.236,9.788,1.69.479,18.136,7.247,19.759,8.214-1.075,5.013-24.338,5.009-29.819,4.613-6.042-.435-11.268-1.062-11.563-8.282-.29-7.028-.638-1.917-2.016-6.525-.205-.686-2.475-19.135-4.062-25.677l-.58-12.606c.156-3.13,1.039-.963,1.061-3.46.053-5.061-8.019-4.076-11.267-2.23-3.9,2.216-10.545,1.547-6.43,10" transform="translate(273.365 95.964)" fill="#c42830" fill-rule="evenodd"/><path d="M113.159-108.436c.116,1.619.963,3.585-3.286,5.735-1.021.517.152.049-.776.214-5.048.923-4.892,5.552-8.1,6.675-1.936-1.859-1.849-6.51,0-8.267,2.363-2.243,1.818-3.309,6.34-5.454,2.444-1.164,3.706-.437,5.815,1.1" transform="translate(283.547 103.476)" fill="#c42830" fill-rule="evenodd"/><path d="M101.151-109.839c1.882.825.5-.08,2.132,1.222,1.079-1.686,3.737-2.774,1.5-5.4a39.744,39.744,0,0,0-4.1-.343,25.464,25.464,0,0,0,.468,4.522" transform="translate(287.324 88.76)" fill="#c42830" fill-rule="evenodd"/><path d="M97.467-101.639c-5.588,8.848-2.961,34.012-3.231,36.826-.822,8.564-3.625,44.555.4,47.235,2.5-3.255,2.743-35.385,2.343-41.091-.292-4.15.324-6.884.087-11-.512-8.92-1.564-13.27-.128-22.349.978-6.185,3.112-7.545.53-9.623" transform="translate(259.119 132.768)" fill="#c42830" fill-rule="evenodd"/><path d="M92.723-73.76c3.04,1.339.81-.128,3.446,1.978,1.742-2.728,6.041-4.483,2.427-8.736a65.751,65.751,0,0,0-6.633-.555,41.5,41.5,0,0,0,.761,7.313" transform="translate(257.14 203.909)" fill="#c42830" fill-rule="evenodd"/><path d="M113.461-103.525c-7.663,5.864-11.814,28.918-12.815,31.3C97.6-64.968,85.412-34.253,88.538-30.511c3.24-2.006,11.968-30.2,13.1-35.362.819-3.751,2.127-5.947,2.99-9.65,1.871-8.028,2.019-12.217,5.787-19.713,2.569-5.11,4.961-5.57,3.049-8.29" transform="translate(243.588 126.244)" fill="#c42830" fill-rule="evenodd"/><path d="M87.454-80.225c2.457,1.082.655-.1,2.786,1.6,1.409-2.206,4.885-3.625,1.963-7.065a52.985,52.985,0,0,0-5.364-.449,33.528,33.528,0,0,0,.615,5.914" transform="translate(239.427 186.385)" fill="#c42830" fill-rule="evenodd"/><path d="M102.31-110.878c1.882.829.5-.08,2.131,1.222,1.079-1.686,3.737-2.769,1.5-5.4a40.929,40.929,0,0,0-4.1-.343,25.841,25.841,0,0,0,.468,4.522" transform="translate(291.333 85.166)" fill="#c42830" fill-rule="evenodd"/><path d="M86.479-79.165c1.878.828.5-.08,2.13,1.223,1.077-1.687,3.735-2.772,1.5-5.4a40.937,40.937,0,0,0-4.1-.342,25.581,25.581,0,0,0,.472,4.522" transform="translate(236.561 194.868)" fill="#c42830" fill-rule="evenodd"/><path d="M119.228-46.8c4.031,2.3,2.288.048,5.4-.4a3.03,3.03,0,0,1,3.228,3.459c-.606,6.031-9.877,3.57-5.9,8,4.308,3.311,7.63,1.365,12.227-.533,2.279-5.016,3.3-10.654,5.534-16.006,1.226-2.927,6.733-15.062,8.348-16.79.009,0,9.181,4.323,11.924-4.946-3.22-2.777-3.92-.186-6.778-3.173-2.372-2.481-1.842-5.195-.187-7.981,3.318-1.187,3.822,1.15,6.35-2.572-1.222-2.321-1.454-3.053-3.772-3.3-11.135-1.208-11.473,5.583-12.49,10.842-.219,1.125-3.607,4.458-6.408,10.117-1.793,3.614-4.522,9.209-6.787,13.181-6.394.761-9.039,2.274-11.456,9.021Z" transform="translate(348.87 168.898)" fill="#c42830" fill-rule="evenodd"/><path d="M64.71-38.294c2.351-4,5.145-5.087,9.954-5.249a11.037,11.037,0,0,1-2.1,5.041c-.339.256-5.021,1.333-6.374,1C64.413-37.952,65.8-37.351,64.71-38.294ZM46.553-58.18c.4-4.092,7.089-5.643,9.291-5.557,1.743,2.992.029,3.3-2.7,4.862S49.566-56.859,46.553-58.18Zm33.919,10.1c-3.08-3.075-9.529-2.728-14.008-1.272-7.189,2.337-4.753,5.293-10.381,10.855L45.447-48.379l1.4-1.381c4.964-2.505,23.515-3.049,15.128-16.478-7.068-11.318-17.847,1.022-23,4.9-7.822-5.023-5.937-15.453-9.986-17.673-9.393-5.149-2.75,12.855-1.652,14.938,4.642,8.8,8.938,6.941,11.8,15.4,2.341,6.925,5.034,11.862,12.393,14.351,11.207,3.789,13.868,20.655,38.022,15.44,12.333-2.663,5.054-9.2-1.328-7.528-3.571.933-18.891,1.226-19.677-2.9,3.368-3.1,4.817,1.954,11.352-7.69,3.24-4.782,4.74-6.922.577-11.079" transform="translate(22.201 207.861)" fill="#c42830" fill-rule="evenodd"/><path d="M38.64-63.3c1.311-1.219,1.909-1.7,3.044-1.906L38.768-49.7c-5,3.054-13.592.236-13.427-3.48a61.79,61.79,0,0,1,4.624-5.593c2.2-1.751,5.016-1.54,7.545-1.743C37.641-62.366,36.7-61.5,38.64-63.3ZM31.628-79.732c4.4-1.669,8.321-1.949,9.5,2.725,1.1,4.383,3.658,4.218.591,9.851-2.667-1.378-.437-1.5-4.4-1.935C30.78-69.806,28.852-73.31,31.628-79.732ZM64.352-58.157c-2.743,4.951-16.538,7.882-17.483,5.442-.465-1.2-.05-5.636.136-6.981A115.62,115.62,0,0,1,50.964-74.7c1.093-3.3,1.807-3.834,5.355-4.145,3.953-.345,2.92-1.157,6.3.971-2.041,12.105-5.885,5.577-10.2,8.326-2.311,1.472-2.5,4.176-2.054,6.3C54.747-60.707,59.916-65.02,64.352-58.157ZM27.177-64.539c-5.669,6.769-12.883,11.876-6.3,19.521,6.665,7.746,17.7.466,21,.1,8.191-.918,14.377,1.073,22.813-5.892,8.465-6.987,9.2-12.543,1.012-18.1,1.924-5.018,7.889-16.541-1.84-17.465-3.476-.33-9.536,1.666-11.831.9-4.554-1.521-1.054-7.382-6.161-6.279-8.363,1.806,3.723,5.114-7.372,4.179-4.381-.371-7.4.83-10.673,3.88-7.66,7.144-4.883,12.787-.642,19.156" transform="translate(2.223 166.486)" fill="#c42830" fill-rule="evenodd"/><path d="M30.582-89.062c.257-3.166,1.454-4.445-2.107-5.116-4.671-.88-7.836,5.005-3.7,6.819,2.166.95,3.612-.473,5.8-1.7" transform="translate(18.15 158.272)" fill="#c42830" fill-rule="evenodd"/><path d="M29.938-93.973c-3.1,1.413-5.094,3.812-4.3,6.994l3.931.753c5.52-3.175,3.379-4.43.371-7.747" transform="translate(27.155 159.284)" fill="#c42830" fill-rule="evenodd"/><path d="M30.256-75.807l2.49,1.729Z" transform="translate(43.738 222.125)" fill="#c42830" fill-rule="evenodd"/><path d="M185.694,88.1c.507-7.43.374-7.027-3.946-12.236-8.27.456-18.437-3.962-15.771,9.29C167.22,91.341,181.39,90.431,185.694,88.1Zm-.239-16.375,4.136-.114c.468-4.174.048-17.748-1.572-20.7-4.015,2.965-1.329,1.541-2.515,9.84C184.969,64.487,184.311,68.153,185.455,71.728Zm-25.2-17.4c-1.9,3.468-5.4,40.983-4.835,46.024,5.809,1.1,10.366-.32,17.259,1.111,3.645.756,13.621,2.741,13.869-2.4-6.335-.406-12.092,2.066-17.687-2.1-5.205-3.875-9.4-3.785-9.247-11.624.474-24.834,5.739-13.806,4.559-23.907C163.724,57.567,163.341,56.055,160.26,54.33ZM179.1,55.842c-1.388.215-7.594,1.111-8.39,1.408l-1.082,8.414c1.942.688,7.73,1.964,9.062.758C180.82,64.489,180.284,58.547,179.1,55.842Zm197,1.226c-3.419,1.043-6.73,3.424-10.019,5.148a79.266,79.266,0,0,1-9.155,3.977c-7.741,3.088-13.465,3.908-21.452,3.873-.738,0-.958-.074-1.537-.029-1.414.107-.531-.182-1.293.272,5.424,3.056,19.777,2.527,25.7,1.781,5.191-.654,7.161-2.555,12.085-3.889C376.474,66.561,375.639,63.479,376.1,57.068Zm-31.572-1.92-4.234-.024C340.614,60.553,344.378,58.225,344.526,55.148Zm27.688-8.589c2.615-2.933.9-5.832-1.55-8.3-2.836-.183-1.483-.375-3.951.92C365.933,42.754,368.744,46.786,372.215,46.559Zm-5.769-16.54c-17.4-6.983-7.891,5.752-18,10.254-5.794,2.58-8.259,1.7-13.5-1.527-1.183-5.749-.3-6.462-4.843-10.587-2.9,3.282,1.528,5.266-7.223,6.377-5.67.722-5.078-4-9.42-5.556-2.764,1.628-5.11,7.05-5.606,10.448,5.531,1.078,3.2-2.693,10.731-1.77,1.545,1.94,3.09,6.214,3.944,8.79,1.516,4.575-.533,5.421-2.294,8.7,2.7,3.087,7.593,5.223,11.644,4.36,3.376-3.724,3.131-9.76,9.134-11.172,10.915-2.568,9.063,3.988,11.045,9.129,3.41.32,6.706-1.645,9.681-2.724,5.229-1.9,4.037-1.925,1.288-6.239C356.433,38.139,366.365,34.9,366.445,30.018ZM340.2,32.609l5.1.852c3.189-4.8,2.658-2.176,1.341-8.035,3.572-2.609,5.559-10.435,3.513-15.6l-10.08-1.106C337.572,12.115,337.655,28.239,340.2,32.609ZM208.952,4.869a70.3,70.3,0,0,0-3.893-13c-2.18-5.788-1.921-8.736-9.173-6.3-14.622,4.923-26.058,6.029-41.659,6.72-7.23.321-7.264.013-11.079,5.623-5.374,7.915.484,36.249,16.923,45.552,11.242,6.363,14.3,3.945,24.618-1.468,7.5-3.934,13.026-8.215,17.641-15.256,2.41-3.674,5.125-4.812,5.688-10.359C208.258,14,209.243,6.581,208.952,4.869Zm-56.36-23.228c2.136.062,45.822-2.689,34.261-6.644-1.94-.664-8.319.5-11.309-.825-5.091-2.261-1.415-1.721-7.886-.089C162.642-24.656,153.619-24.156,152.592-18.359Zm172.834.914C322.746-.852,323.049-3.234,339.359-.135c9,1.712,18.043-1.088,26.317-4.615.611-5.115-2.491-.8.958-7.549a17.178,17.178,0,0,0,1.427-8.584c-3.874-.018-2.625.495-5.535,1.458l-16.1,2.412C335.306-15.768,332.168-21.539,325.426-17.445Zm46.092-14.907c-1.528-.883-1.838-.633-3.492,1.026C370.944-30.778,370.258-30.238,371.518-32.352ZM198.135-30.524c2.014-4.049,1.641-10.461,1.786-15.273.081-2.667-.684-2.974-.4-6.136,1-10.907,4.136-27.647,1.9-37.185-5.031-.517-5.368.41-9.5.651-3.287.192-6.336-.571-9.415-.767l-48.09-.1c-2.14,6.247-.736,10.715-8.88,9.346-3.124-5.9,1.056-5.1.268-9.7-2.193-.334-2.028.174-4.035,0-4.17-.366-.429-.317-3.032-.981-.633,3.175,1.742,4.513,3.031,8.446,1.782,5.445,3.586,15.152,5.366,18.965,3.05,6.537,10.879,40.833,12.061,47.669,15.45-10.368,5.627-11.848,25.039-15.482,3.326-.62,14.461-2.778,17.274-2.644C186.962-33.454,193.729-30.421,198.135-30.524ZM36.688-94.611c2.8-3.3,3.092-2.631,4-7.848.594-3.4,1.871-6.323,1.253-9.659-.477-2.564-1.987-7.054-4.415-8.089-.939-.4-8-2.337-8.2-2.346-2.556,4.388-3.22,11.549-2.684,17C27.3-98.816,30.162-96.043,36.688-94.611Zm94.439-3.755c9.245,3.666,45.235,1.944,57.6,2.591,6.635.343,11.979,2.4,17.7-1.5,5.076,2.078,2.908,5.382,10.812-1.73,3.977,2.029,1.528,3.915,7.917,4.147,21.417.767,36.348-2.016,58.442-1.641,3.691.062,8.3-.544,11.365-.276,6.406.553,5.975,2.091,9.21,2.965,4.489-4.022,4.262-22.581-2.471-28l-2.212,2.564c-7.457-2.189-1.321-1.8-8.151-1.057-3.253.352-5.932-.455-10.164.169-4.4.651-15.253-.41-20.2-.807-2.222-.183-15.771-.379-17.748-.205-6.381.562-12.776-.789-19.521-.183-2.9,2.372-.548,3.193-4.62,4.553-5.151-1.476-3.054-5.329-9.7-4.548-.9,2.97.037,8.374-3.762,7.906-4.563-.562-3.669-5.922-4.222-8.316-6.141-1.677-4.61,2.261-9.723,3.1-3.209-1.944-1.4-3.2-6.234-3.393l-15.085.089c-4.367.74-5.308-.8-8.2-.544-2.219.2-3.609.785-6.982.91-8.047.29-19.479-1.538-24.815-.366L126.9-115.81c-8.186.37-5.5-3.6-7.246-7.121-5.119,2.774-1.891,1.03-5.292,4.606l-3.554-.263c-3.465-4.152-.851-4.116-8.308-4-.623,2.466-1.216,14.363-6.679-.045-3.579,1.092-8.791-1.021-12.653-1.449-4.348-.482-3.172.553-6.3.647l-17.5-.99A67.96,67.96,0,0,0,48.3-122.579c.247,9.73,5.7-1.583.548,28.021,7.281-.495,14.793,1.052,21.941.375L123.053-96.4C130.533-95.664,126.164-96.052,131.127-98.366ZM361.479-38.733c2.628-6.131,1.657,4.1,3.707-15.348.33-3.126,1.431-5.057,1.694-7.532.555-5.244-2.485-33.029-6.672-38.474-7.135-9.28-12.009-12.486-21.885-17.734-5.038-2.68-8.054-5.159-13.821-6.524-4-.95-12.309-2.684-15.077-1.512.493,3.211,3.107,6.863,4.093,11.3,1.5,6.76.712,20.539-1.953,26.086-.827,1.721-5.759,6.158-5.365,7.1,3.565,5.828,30.4-8.1,25.288,35.384-1.513,12.856-4.041,7.478-6.17,12.677,6.088,8.2,30.227,6.439,38.3,4.294l1.57-6.68ZM295.7-130.2c-2.346.308-2.7-.08-2.614,2.4C296.122-128.109,295.339-128.14,295.7-130.2Zm-80.694,1.81c-.564-2.72-3.5-1.926-1.556-5.11,1.556-2.555,4.035-2.609,6.988-1.909l3.357,7.4c6.593,1.253,24.681.459,32.162.491,3.16.013,26.05.972,26.429.834,4.477-1.645,6.215-18.278,19.182-9.186,4.155,2.912,8.163,2.475,13.059,2.68,21.214.887,46.213,15.4,53.712,36.249,10.076,28.026,2.309,42.13,2.535,58.8,2.91-.16,6.392-1.645,8.752,3.215,1.04,2.14.4,3.969-.048,6.015-.969,4.428.457,1.106-2.823,4.183-2.9,2.72-1.366,8.125-2.1,12.281-1.428,8.08,9.076,9.5-10.7,18.778-5.368,2.519-5.313,8.3-6.319,13.788,5.153.713,7.455,2.533,10.986,3.09,5.622.9,4.454.272,8.61,4.477,14.047,14.226,4.355,26.756,5.744,41.152.755,7.823-2.826,2.723-3.429,9.7-.316,3.654-.133,8.056-5.759,7.306l-.82-6.953c-2.261-.2-11.411,3.5-15.814,4.186-8.1,1.254-2.582,5.7-9.552,8.813l-2.531-7.354c-3.168-1.213-9.748.194-14.355-.821-4.319-.952-7.157-2.354-11.106-3.625-2.086,3.759-.849,7.5-6.005,6.9-1.535-4.942,1.943-6.93-4.491-11.754-11.682-8.757-11.175-11.921-11.4-24.842-.1-5.8,1.412-10.156,2.4-15.728,5.6-3.032,2.525-.152,6.009-5.619a50.935,50.935,0,0,1,5.406-6.5c1.1-.776,7.4-2.729,8.864-3.041,7.19-1.525,12.846,4.37,11.236-11.638a55.514,55.514,0,0,1-5.8-2.493c-5.891-2.5-8.541,1.851-6.812-13.716.535-4.816-1.027-.531-1.451-5.07-.236-2.528,1.01-2.742.315-6.426-3.783-3.875-10.389-9.6-7.79-15.723,2.882-6.8,8.608-6.836,13.618-10.18,1.7-4.566,1.64-17.881-1.906-22.153-7.847-9.458-11.757-.388-18.206-5.636l.145-5.413c-4.071-.223-4.136,5.409-12.487-2-4.194-3.723-6.166-4.352-9.19-8.776a32.825,32.825,0,0,0-9.5.192c-5.343.713-1.738-1.07-4.9-.268-6.266,1.6-9.179-1.73-13.462.281-3.892,1.828-26.348.914-32.486,1.208-1.671,2.051-1.507,4.8-4.687,5.075-5.012.437-1.613-2.947-4.754-5.538-5.343,1.052-2.562.919-3.423,14.064-.556,8.481-4,38.505-2.59,46.032,5.191.254,11.814-4.316,15.516-3.358,6.085,9.565-8.886,10.809-12.33,13.9-.447,2.3,3.7,12.86,4.735,16.548,4.36,15.549-2.391,34.634-15.345,45.419-4.356,3.625-2.032,10.731-1.833,16.191.731,19.9-1.211,20.584-2.6,36.511-.533,6.124-.016,14.271-1.284,19.931l3.419.847c-.1,7.017-4.256,13.88-2.16,21.428,10.272,2.447,17.128-3.094,23.664.021,1.743,4.342,1.538,1.729-1.27,6.918-.89,1.646,1.225-.963-.619,1.157l-27.255.2c-1.335-1.319-.389-.182-.861-2.515-.024-.127-.027-.347-.051-.469s-.031-.334-.055-.447c-.63-2.94-.94-.26-1.183-4.166-.132-2.132.877-6.51,1.135-8.962.421-3.988,1.887-6.431-.009-10.059-1.456-2.786-2.192-4.735-3.639-7.483-5.66-.889-25.14-2.241-29.756-.851-3.237,3.432-2.679,15.309-3.127,20.227-.728,7.975-8.2,6.921-15,8.176-2.654.489-2.571.789-5.21.561-12.947-1.117-21.72-10.034,1.28-11.03,13.772-.6,14.486-3.715,11.6-20.808-.694-4.114,1.371-5.05,2.959-7.325,2.066-2.959,3.419-33.834,4.367-40.332,3.141-21.53-8.085-16.482-13.549-33.95-1.881-6.015-4.059-12.963-4.257-19.175-.195-6.087-.09-15.219-1.451-21.186-2.851-12.5-5.4-26.073-8.876-38.166-1.638-5.708-4.378-12.637-6.127-18.76-1.513-5.293-2.7-14.309-4.168-18.546-2.732-1.168-21.707.241-27.22-.085-12.172-.722-22.62,1.2-25.452,1.1-4.313-.169-26.294.718-27.773.223-.01,0-9.485-6.314-9.551-6.395a19.9,19.9,0,0,1-4.615-10.952c-.986-12.062-1.92-12.883,4.458-22.662,7.393-11.331,12.662-2.158,20.324-2.97,20.069-2.131,43.489,2.154,54.426.807.933-4.259-1.093-9.654,4.788-9.6l.392,9.837,7.977-.771c2.915-3.13-.916-4.967,4.425-7.161,2.149,2.872.493,4.125,1.245,7.755l5.468.2c.248-3.723-2.94-1.512-2.517-5.133.21-1.793,1.183-4.589,2.47-5.587,5.371.1,5.324,6.97,7.125,10.582,4.7,1.356,59.814.843,61.191-.147,2.081-2.9-.072-4.829,1.407-7.928,9.877-.464.288,9.944,10.806,7.625,1.078-5.382-.408-12.423,5.511-10.038,1.643,4.905-3.122,14.033,7.192,11.148" transform="translate(0 0)" fill="#c42830" fill-rule="evenodd"/><path d="M49.174-78.488c1.02-.584,15.629-1.467,18.288-1.69,5.793-.495,18.413-10.653,19.25-21.632.471-6.189,7.349-11.112,6.956,2.546-.243,8.4-9.641,22.563-17.349,25.515-7.466,2.855-4.986,2.56-13.085,2.755-3.356.082-4.449-.668-7.586-2.086-4.711-2.132-6.776-.553-6.474-5.409" transform="translate(109.079 110.745)" fill="#c42830" fill-rule="evenodd"/><path d="M59.873-100.407l-7.013-3.086a5.682,5.682,0,0,1,7.614-5.083c2.925,1.075,0,7.215-.6,8.169" transform="translate(121.933 107.599)" fill="#c42830" fill-rule="evenodd"/><path d="M48.454-100.568c-.653-3.331.59-6.925,3.795-7.211,2.331,3.162,2.031,8.6-3.795,7.211" transform="translate(106.107 111.528)" fill="#c42830" fill-rule="evenodd"/></g><g transform="translate(847.358 238.774) rotate(-3)" opacity="0.61"><path d="M107.666-72.137l-1.719,1.561Z" transform="translate(348.137 205.336)" fill="#c42830" fill-rule="evenodd"/><path d="M133.3-73.539c3.737,1.825,6.369,4.424,4.753,8.65-5.525,1.679-17.53,2.935-18.678-4.482C117.89-78.973,135.849-82.982,133.3-73.539Zm6.433,10.605c1.779.144,3.249,4.913,3.956,6.76,1.063,2.782.943,5.439,1.076,8.525-2.533,1.928-5.293,3.651-8.683,3.6-2.383-.033-6.528-.906-7.14-3.406-.51-2.1,2.319-6.355,3.519-7.455,3.206-2.938,4.646-1.616,6.78-1.4C143.1-59.9,138.694-60.725,139.736-62.934Zm14.521-20.219c1.1,1.169.514,3.227-.231,4.933-.964,2.2-2.07,1.764-3.947,3.335-2.143,1.794-6.93,7.145-6.99.609C143.006-82.77,148.342-89.41,154.257-83.152Zm-7.976,17.824c1.114-.174,3.544-.255,4.277-.422,2.147-.488.171-.309,2.46-1.3,10.1-4.374,10.951,4.444,13.3,6.247l-3,4.025c-5.117,4.272-7.95,4.71-13.441,2.5-.527-2.857.7-.362-1.384-5.352C147.686-61.543,146.594-63.275,146.281-65.328Zm-22.231,9.1c-.227,5.348-5.589,9.519-.3,14.933,3.947,4.042,8.6,5.038,14.414,4.3,8.765-1.118,9.682-3.972,14.555-8.688,2.019-1.952,8.855-.525,14.971-6.58,13.544-13.41-7.595-20.377-6.72-26.773.681-5.01-1.26-11.955-7.1-12.962-15.652-2.7-3.613-.787-7.569-9.547l-1.869-.643c-1.149,2.666-5.953,15.13-7.432,16.4l-9.065-14.04c-7.9-.587.84,12.536,1.573,13.8-7.29,2.827-14.247,3.7-16.788,13.177-2.374,8.862,6.369,12.25,11.332,16.629" transform="translate(369.067 106.587)" fill="#c42830" fill-rule="evenodd"/><path d="M121.794-99.915c-.711-1.269-.609-1.77-1.363-2.632-4.436-5.049-9.888,6.279-3.154,5.735,3.63-.3,3.99-2.494,4.517-3.1" transform="translate(374.979 101.142)" fill="#c42830" fill-rule="evenodd"/><path d="M119.65-103.995c.163,2.7-.017,3.146,1.641,4.929,4.959.137,5.237-.5,4.41-4.577-2.194-.729-3.643-1.29-6.052-.351" transform="translate(393.165 99.032)" fill="#c42830" fill-rule="evenodd"/><path d="M129.5-33.564c1.11-20.564,23.393-10.474,24.229.516C154.178-27.172,128.462-14.258,129.5-33.564ZM154.217-23.9c3.373,7.257-13.149,27.146-17.877,31.164A31.619,31.619,0,0,1,122.852,14.3c-10.942,2.806-7.239-.306-14.3-.228C92.657,29.666,140.476,25.4,155.352-9c5.075-11.735,3.369-15.492,5.49-22.181.849-2.677,8.066-11.855,10.822-18.907,2.426-6.219,14.247-42.007,1.217-35.666-.514,1.617.056,15.75-3.026,26.112-1.62,5.453-7.166,20-12.112,21.85-3.557-2.56-4.457-10.311-11.881-12.416-12.1-3.416-26.38,9.812-21.374,23.374,8.482,22.969,25.1,3.1,29.727,2.929" transform="translate(346.195 158.131)" fill="#c42830" fill-rule="evenodd"/><path d="M205.06,22.463c5.684,13-8.066,41.426-21.756,45.5-28.582,8.495-51.5-24.728-37.986-47.512a29.813,29.813,0,0,1,6.986-8.412c9.288-8.581,7.61-4.582,8.993-4.331l25.571,3.1C196.491,12.649,201.27,13.792,205.06,22.463ZM179.024,75.433c.55,7.687,1.854,25.6-.588,32.455l-13.3.1c-3.3-8.037-3.349-22.3-1.6-31.5C170.026,73.6,171.357,75.811,179.024,75.433ZM198.861-32.295c7.9.7,2.237.034,6.221,6.948,6.958.495,5.639-6.449,11.576-4.919C212.751-18.858,206.124-9.6,203.751,3.946c-4.843-1.54-15.579-3.069-17.93-4.014-4.857-1.954-6.529-17.27-38.968,5.261C142.96-2.365,133.97-23.919,137.074-30.9a6.911,6.911,0,0,0,7.717,5.16l6.09-6.191Zm37.121-18.35-5.007,7.909c-8.787-5.717-1.009-12.487-13.705-1.345-2.091-4.987.523-8.486-5.569-9.277-6.292-.819-3.521,3.173-6.7,8.382-10,.943-24.775-1.238-36.06-.854-5.771.2-10.748.842-16.445-.6-11.378-2.89-2.7-4.715-12.831,1.611L133.1-50.865c-7.035,4.867-.268,4.544-7.333,7.723-4.109-5.994.543-6.585-6.45-8.958-6.976,6.017-.695,9.754-13.144,10.721-7.095.55-14.7.5-21.642,1.294-9.754,1.117-60.815,2.668-57.083,17.178,1.118.459,77.015-6.084,84.939-5.941,5.061,5.661-.348,2.223,5.823,5.972,4.837-1.57,3.963-3.239,6.98-7.719,5.478,3.091,5.568,17.561,8.642,26.238,5.783,16.319,8.174,11.193,1.431,26.294-3.957,8.86-1.7,20.414,2.386,28.965,8.007,16.774,7.92,13.012,18.3,20.833.53,26.658-3.667,66.616,1.715,90.885-5.727,4.995-8.5.53-7.255,11.55l12.324,1.512c7.16-11.938-6.875-35.171.57-55.558,10.194-.7,13.924,2.6,22.731-1.882a40,40,0,0,1,21.818-3.586c-.292,7.211-3.967,12.82-2.176,18.691,5.126,2.9,17.878,1.465,22.238-.9.585-8.734-7.6-8.176-13.393-10.824,4.69-32.153,3.329-18.211-27.469-17.141.154-10.387-3-20.722-.183-31.217,1.111-1.783,31.411-18.521,28.39-50.111-1.512-15.8-10.836-8.141-2.2-29.43,3.273-8.064,5.619-26.286,16.438-25.85l3.1,5.772c7.272-2.811,4.616-1.661,9.48-6.275l92.173-2.25c7.225-20.539-76.161-5.088-87.118-6.161-13.187-1.29-.151-4.821-11.155-9.607" transform="translate(89.55 266.694)" fill="#c42830" fill-rule="evenodd"/><path d="M74.567-6.851c9.357,1.417,25.711-10.089,25-18.965-10.335-5.223-7.2,13.25-23.8,9.858-17.092-3.491-8.65-15.1-16.988-17.34-8.254,10.952,4.937,24.8,15.794,26.447" transform="translate(184.625 332.959)" fill="#c42830" fill-rule="evenodd"/><path d="M76.607,6.047c5.814-1.125,4.035-3.24,7.254-9.352,3.511-6.663,5.282-5.24,4.641-13.543C80.342-17,72.171-.62,76.607,6.047" transform="translate(247.618 387.009)" fill="#c42830" fill-rule="evenodd"/><path d="M83.969,1.115c6.179.759,3.246.552,8.857-2.171,5.512-2.677,4.926-.248,5.414-7.108-7.35-4.349-14.914-.522-14.271,9.28" transform="translate(275.793 409.703)" fill="#c42830" fill-rule="evenodd"/><path d="M92.319-13.185C84.541-17.552,79.421-8.732,80.146-1.3c5.61.712,13.818-5.7,12.173-11.885" transform="translate(263.131 395.232)" fill="#c42830" fill-rule="evenodd"/><path d="M66.346-36.956c-3.8,3.576-3.62,4.653-3.408,9.954,6.98-.21,10.884-7.157,3.408-9.954" transform="translate(206.505 320.94)" fill="#c42830" fill-rule="evenodd"/><path d="M59.2-28.567c7.694.511,8.515-4.614,3.03-8.417-4.929,2.5-4.175,2.433-3.03,8.417" transform="translate(191.742 320.847)" fill="#c42830" fill-rule="evenodd"/><path d="M424.189-20.724c-3.42-49.758-37.7-50.721-84.739-48.6-38.663,1.193-79.543.433-119.48-.357s-80.6-.209-120.644-1.669c-20.856-.03-37.658-4.229-53.422,3.671C22.312-55.495,18.806-47.974,13.05-19.5,9.857,1.491,18.529,25.482,41.867,34.87c24.5,10.7,40.377,3.471,62.679.762,37.061-5.186,77.108-3.728,115.772-4.919,40.441-1.922,81.43-.491,121.146-1.043,53.2-5.01,80.864,7.613,82.724-50.393" transform="translate(40.786 204.181)" fill="#c42830" fill-rule="evenodd"/><path d="M373.688-25.239c-7.458-57.045-53.243-41.483-100.614-41.369-35.332-1.605-74.545-3.765-108.714-4.059C149.272-70.2,31.348-72.628,26.239-69.1c-3.332,2.8,12.132,10.407,15.84,15.684C50.55-42.224,56.474-35,57.84-20.886,59.489-10.83,54.253,3.481,49.914,11.7,47.242,18.522,33.8,29.044,56,25.664c51.1-6.293,114.105-3.521,168.58-6.548,27.237-1.514,91.363-3.493,125.312-4.541,7.543-.232,27.43-17.692,23.8-39.815" transform="translate(84.686 208.901)" fill="#dc2d36" fill-rule="evenodd"/><path d="M66.313-41.218c-.769-4.693-15.76-32.532-34.134-23.205C21.633-59.381,15.656-32.243,17.526-20.846,21.043.608,36.114,11.6,54.38,1.6c7.827-4.284,13.676-20.636,11.934-42.818" transform="translate(56.472 224.45)" fill="#dc2d36" fill-rule="evenodd"/><path d="M27.5-58.86C16.671-49.766-1.708-.01,37.974,22.35c6.318,3.848,26.057,8.63,26.954,2.537-1.052-.642-15.088.466-25.837-7.288C29.834,13.168,23.973.545,21.6-8.141c-5.294-20.726,1.167-39.119,13.774-48.94,30.477-16.439,49,21.4,49.819,32.154C84.546.025,75.146,17.834,75.255,18.505c27.29-35.882,14.955-59.085-.886-74.769-20.492-20.93-32.7-14.489-46.868-2.6" transform="translate(44.963 212.649)" fill="#dc2d36" fill-rule="evenodd"/><path d="M17.445-46.1c-9.388-1.713-3.92-2.053-10.44-6.2l3.657-5.975c7.98-.683,5.48,3.412,14.789,3.29.952-5.733-2.307-4.471-1.429-11.226,12.914-10.1,9.154,12.368,5.3,17.831C26.928-44.97,20.851-45.48,17.445-46.1ZM1.287-48.2c4.875,11.849,19.472,8.252,29.249,9.48,11.261,1.413,6.518-5.124,5.41-8.411-.956-2.833,1.914-10.3,2.3-14.849C39.84-80.6,25.156-79.043,18.838-69.47,15.362-64.206-5.3-64.208,1.287-48.2" transform="translate(0 191.281)" fill="#c42830" fill-rule="evenodd"/><path d="M50.067-41.848c-1.246-8.433-13.05-6.886-19.6-12.183-5.405-4.373-12.5-10.515-19.077-13.585,2.237,9.576,29.487,27.21,38.674,25.768" transform="translate(37.435 220.191)" fill="#c42830" fill-rule="evenodd"/><path d="M92.913-93.193c3.36-5.619-14.538-7.976-19.632-6.875-7.968,1.714-14.313,9.742-10.818,17.2,3.143,6.708,11.238,12.487,18.978,7.89C92.563-81.574,88.756-86.25,92.913-93.193ZM60.615,9.013c-1.587,1.651-1.5,25.4-1.378,29.066.666,19.67-5.149,17.464,9.079,22.645,27.061,9.853,28.8-12.438,26.465-33.046-.968-8.554.346-18.864.113-27.474-.165-6.1-8.214-1.995-9.622-6.99-1.515-5.38,7.794-5.766,8.928-7.734.249-.431,2.3-28.217,2.19-30.234-.32-5.718,3.483-25.283-2.944-27.1-.869-.04-11.383,6.347-16.163,7.034C69.1-63.644,64.24-69.864,60.432-69.791c-1.663,2.42-2.5,32.646-.162,35.207,3.07.655,9.191-.565,10.532,3.047L68.873-24.2l-7.921-.894-.378,4.808c3.818,2.64,11.605-2.781,11.067,6.7C68.355-8.8,63.552-11.73,60.433-10.124c-2.193,3.25-.523,7.8.779,10.888,5.907-.672,15.89,4.029,8.41,10.627ZM156.193,30.8c4.087,1.415,4.176-.293,7.065-.755,3.55-.567,4.731,1.691,5.494-3.154l.4-28.952c-.319-2.418-12.263-1.852-13.4-1.224C153.452.006,153.711,27.5,156.193,30.8ZM193.508-32.74c1.207-3.945-2.743-16.322-6.079-19.578-1.2-1.169-19-5.766-22.815-7.4-10.4-4.454-10.679-7.156-20.605.148C137.939-55.1,131.118-51.2,131.672-43.6c.455,6.245,4.367,15.208,8.2,20.05,5.488,6.939,9.877,9.13,18.562,9.982,5.536.543,17.143-.57,22.422-2.738C190.525-20.284,190.628-23.325,193.508-32.74Zm-6.921-32.581c-.543-1.961-1.663-2.837-3.742-1.693C183.3-65.428,184.893-65.206,186.586-65.321ZM146.155-75.475c1.11-.544,7.32-7.123,9.109-8.319,3.254-2.173,11.26-.733,15.062-.24,7.255.947,16.925,7.912,21.966,13.07,3.786,3.871,11.387,17.106,8.607,22.208-1.558,2.86.378,10.2.834,14.07.943,7.994-.458,7.434-3.394,13.974-1.765,3.932-3.818,7.509-7.626,9.874-11.865,7.37-6.943,2.644-11.5,4.745-3.638,1.679-2.959,22.946-3.226,27.618-.294,5.139,2.814,3.747,1.6,13.426a129.429,129.429,0,0,0-1.3,14.5c-.063,2.115-.55,12.912.1,14.047,1.1,1.929,10.587-.464,6.58,8.111l-12.34,1.636c-6.567-6.62,4.48-27.116-1.956-32.661-2.189-1.348-12.229-1.246-13.335,2.668-1.1,3.88.339,10.916.565,14.661.905,14.971-.166,13.788-9.847,12.652-5.305-.623-3.948.846-6.688,1.389-4.11-1.434-5.382-5.069-1.826-8.3,5.267-4.788,6.08-.684,10.218-2.329,2.562-1.885-.232-21.63-.147-25.382.231-10.061-.273-18.474,1.291-29.168-3.239-2.622-5.687-4.786-10.962-4.437-4.051.267-29.869-5.777-35.208-4.515-2.149,7.881-2.7,46.333-2.016,55.828,1.63,22.659-26.947,21.332-39.772,13.2-8.078-5.124-13.99-8.541-9.916-17.886,2.125-4.876,1.255-21.476.769-27.327-.615-7.393.8-19.914-.485-27.277-1.4-8-1.042-5.915-.109-13.806.451-3.813-1.363-6.79-.571-12.2,2.134-14.577,2.3-42.188,1-56.855-1.367-15.434.216-9.365,11.93-16.334,5.753-3.424,17.979-4.406,23.989-1.65,19.415,8.915,15.833,23.813,15.681,42.045-.052,6.278-2.487,49.611-.861,52.07,3.211,1.277,2.859-.553,6.227,1.678a10.578,10.578,0,0,0,4.391,1.805c3.231.691,31.5,3.651,33.039,2.9-.048-2.357-10.327-9.5-12.38-12.833C131.9-21.654,126.8-32.766,126.2-35.8c-5.282-27.06,12.7-23.3,14.817-31.35-2.685-4.862-15.9-3.923-18.358-5.01l-.61-8.614c6.224-3.887,18.133,5.683,24.1,5.3" transform="translate(163.32 87.245)" fill="#c42830" fill-rule="evenodd"/><path d="M86.171-86.79a15.471,15.471,0,0,1-6.581-.046c-2.782-2.8-2.742-7.684,2.356-7.743,4.657-.054,5.85,3.9,4.226,7.788" transform="translate(255.462 131.594)" fill="#c42830" fill-rule="evenodd"/><path d="M73.322-94.134c.379-.2,4.9-1.505,5.2-1.538,2-.226,2.955,1.428,4.38,2.534-.53,1.817.147,2.487-1.385,3.779-1.606,1.352-8.005,1.552-8.2-4.775" transform="translate(240.934 127.932)" fill="#c42830" fill-rule="evenodd"/><path d="M110.156-74.97C95.869-59.479,74.616-70.062,71.617-88.9c-1-4.591,4.026-5.68,5.257-1.349,1.362,4.79,4.178,10.883,9.424,13.935,9.9,5.975,16.59-1.161,19.739-3.086a3.047,3.047,0,0,1,4.118,4.433" transform="translate(234.904 136.828)" fill="#c42830" fill-rule="evenodd"/><path d="M75.137-66.036l-2.126,1.875Z" transform="translate(239.912 225.384)" fill="#c42830" fill-rule="evenodd"/><path d="M137.753-116.006c-3.809,4.582,1.008,6.725-1.4,12.674-3.784,2.439-9.262,1.414-9.122-2.932.186-5.756.864-7.912-6.863-5.58-7.531,2.272-6.1-.463-12.178-.814C75.239-114.57,51.309-90.967,63.675-81.23c5.609-3.45,6.086-14.538,20.334-21.434,9.833-4.757,16-4.715,26.4-5.507,10.207-.784,6.649,13.106,23.061,12.918,16.1-.18,9.693-19.583,4.279-20.753" transform="translate(198.358 61.185)" fill="#c42830" fill-rule="evenodd"/><path d="M78.278-99.141c2.692-4.595-3.5-10.171-.809-14.564,3.406-2.782,6.116-4.076,10.19-2.816,4.536,5.812-1.592,12.605,3.766,14.594,6.326,2.353,4.613-8.3,9.3-10.565,6.132-2.962,11.064,1.929,11.958,8.538,1.134,8.362-2.125,7.633-5.366,14.611l3.115,4.385c8.274-5.079,7.283-17.084,7.322-22.866.035-5.13-2.412-6.793-6.368-9.519-3.876-2.67-6.621-1.277-10.646-1.02-8.5.549-12.022-8.842-22.311-3.09-8.215,4.6-7.982,19.681-.153,22.313" transform="translate(237.699 37.133)" fill="#c42830" fill-rule="evenodd"/><path d="M92.466-115.454l-6.16-1.341c-2.616,4.282-1.138,1.9-1.854,6.373,3.689,4.247,4.277,4.586,8.778.411-1.029-3.519.081-3.176-.764-5.443" transform="translate(277.508 58.593)" fill="#c42830" fill-rule="evenodd"/><path d="M90.784-112.115l-6.158-1.342c-2.616,4.286-1.139,1.907-1.855,6.378,3.689,4.247,4.277,4.586,8.778.411-1.028-3.523.081-3.18-.764-5.447" transform="translate(271.981 69.561)" fill="#c42830" fill-rule="evenodd"/><path d="M81.362,11.444C74.344,4.978,79.146,7.613,75.852.625l6.284-3.094c7.109,3.688,2.808,5.813,10.74,10.686,3.87-4.337.44-5.013,4.794-10.252,16.31-1.632,1.124,15.346-5.049,17.905C88.771,17.468,83.908,13.79,81.362,11.444ZM68.828,1.033C66.614,13.654,80.873,18.415,88.481,24.68c8.76,7.213,8.247-.848,9.067-4.217.707-2.906,7.122-7.678,9.883-11.318,11.3-14.884-1.942-21.42-12.4-16.709-5.751,2.591-23.212-8.452-26.2,8.6" transform="translate(225.406 412.568)" fill="#c42830" fill-rule="evenodd"/><path d="M59.33-63.135c8.123-5.645.517-17.131,2.691-26.68,1.793-7.882,4.564-18.438,4.411-26.864-8.809,7.265-13.272,44.728-7.1,53.544" transform="translate(185.55 58.974)" fill="#c42830" fill-rule="evenodd"/><path d="M73.656-99.294c5.812-3.96,8.032-2.044,3.92-7.818-2.923-4.106-3.052-9.673,1.123-12.695,9.28-6.72,12.842,6.99,8.067,16.861-3,6.21-10.283,19-17.688,14.585C63.474-91.7,56.343-112.512,73.656-99.294ZM91.521-88.917c.555,4.873,7.6,3.965,6.783,10.779-.55,4.612-1.577,10.042-6.774,8.066-7.82-2.974-11.256-13.269-4.781-19.668,4.465-4.41,14.518-20.183,21.047-9,2,3.433-1.328,9.768-4.975,9.6C100.1-89.264,93.933-95.132,91.521-88.917Zm21.63-1.714c7.821-11.341-5.04-16.72-3.992-19.454l9.179-7.093-.591-1.084-14.935,7.226c-.94-4.655,9-20.243,5.424-19.617-5.089.891-7.406,14.859-11.291,18.048-3.11-7.393-2.32-15.837-15.649-15.005-13.58.844-11.367,10.209-13.962,14.645-2.546,4.35-15.165.956-12.573,14.838C56.6-88.3,60.36-84.413,68.937-81.053,82.955-75.562,75.574-71.675,86.113-66c18.32,9.862,19.157-12.708,20.114-16.964.288-1.277,5.763-5.983,6.924-7.663" transform="translate(178.798 12.992)" fill="#c42830" fill-rule="evenodd"/><path d="M76.37-129.419c-.009,0-9.221.973-3.652,5.979a3.921,3.921,0,0,0,2.3,1c3.214.167,3.781-3.99,3.923-4.359-1.322-1.406-1.2-.754-2.572-2.623" transform="translate(233.07 17.111)" fill="#c42830" fill-rule="evenodd"/><path d="M75.383-129.821c-2.095-10.419-11.527-1.174-5.008,2.362,1.874,1.016,3.472-1.02,5.008-2.362" transform="translate(223.815)" fill="#c42830" fill-rule="evenodd"/><path d="M75.366-109.3a11.885,11.885,0,0,0,2.251,4.53c2.865.964,6.219-.733,4.54-4.273-1.533-3.236-4.663-2.7-6.792-.257" transform="translate(247.649 76.641)" fill="#c42830" fill-rule="evenodd"/></g></g></svg>