<svg xmlns="http://www.w3.org/2000/svg" width="393.216" height="41.588" viewBox="0 0 393.216 41.588"><path d="M9.74-7.367a29.692,29.692,0,0,1,6.041-.465,21.244,21.244,0,0,1,6.2,1.084c2.323.93,4.028,2.169,4.8,3.718a3.82,3.82,0,0,1-.774,4.493A3.182,3.182,0,0,1,23.836,2.7a13.9,13.9,0,0,1-3.718-1.239C17.485.378,15.161.069,13.458.533a3.218,3.218,0,0,0-2.788,3.408c0,1.239.31,2.324,1.239,2.789a8.451,8.451,0,0,0,4.337,1.549,53.9,53.9,0,0,1,6.816,1.7,13.816,13.816,0,0,1,4.028,2.169A7.608,7.608,0,0,1,29.568,15.4a13.515,13.515,0,0,1,1.085,5.731A12.387,12.387,0,0,1,29.1,26.713a13.052,13.052,0,0,1-9.6,6.351A21.3,21.3,0,0,1,6.022,30.74,14.6,14.6,0,0,1,1.839,27.8,3.519,3.519,0,0,1,.445,25.008a4.989,4.989,0,0,1,1.084-3.1,3.235,3.235,0,0,1,2.479-1.239,8.876,8.876,0,0,1,4.028,1.395,21.746,21.746,0,0,0,4.647,2.168,20.888,20.888,0,0,0,4.492.774A4.792,4.792,0,0,0,21.2,23.15a3.263,3.263,0,0,0,0-3.718,4,4,0,0,0-2.168-1.7,36.57,36.57,0,0,0-5.887-1.395C8.81,15.4,5.4,13.855,3.543,11.841A10.212,10.212,0,0,1,1.065,6.11,13.146,13.146,0,0,1,2.149-.4,24.783,24.783,0,0,1,4.163-3.65,10.2,10.2,0,0,1,6.487-5.818,15.882,15.882,0,0,1,9.74-7.367Zm37.177.775a3.477,3.477,0,0,1,2.324-1.239,4.162,4.162,0,0,1,2.479.62,6.817,6.817,0,0,1,2.633,3.1c.774,1.549,2.324,4.8,4.337,9.6s3.408,7.281,3.872,7.281c.31,0,.465-.31.62-.775.774-2.014,2.169-5.266,3.873-9.449C68.14.069,68.914-1.791,69.534-3.03a20.087,20.087,0,0,1,1.549-2.788,4.715,4.715,0,0,1,1.239-1.239,5.725,5.725,0,0,1,3.253-.93A5.586,5.586,0,0,1,78.519-6.9c.93.62,1.549,1.859,2.324,4.028a64.738,64.738,0,0,1,2.014,8.829c.774,4.028,1.7,9.14,2.633,15.646.62,4.337.93,7.126.93,7.9a3.028,3.028,0,0,1-.62,2.168,3.169,3.169,0,0,1-1.239,1.239,6.976,6.976,0,0,1-2.014.155,6.32,6.32,0,0,1-2.478,0q-.7,0-1.394-1.395a17.613,17.613,0,0,1-1.085-3.408,58.046,58.046,0,0,0-.774-6.661c-.93-6.041-1.394-9.759-1.549-10.843-.31-1.085-.62-1.7-1.084-1.7-.31,0-.93.929-1.7,2.943A41.71,41.71,0,0,1,70,18.037c-1.085,2.324-2.169,4.337-3.253,6.2a14.935,14.935,0,0,1-2.169,3.1,5.613,5.613,0,0,1-2.943.465,4.616,4.616,0,0,1-2.788-1.239,10.805,10.805,0,0,1-1.859-2.788c-.62-1.395-1.7-3.873-3.1-7.746-1.7-4.337-2.633-6.661-2.943-6.661-.465,0-2.324,5.422-5.576,16.111-.93,2.943-1.549,4.8-2.324,5.731a2.979,2.979,0,0,1-3.1.93A6.588,6.588,0,0,1,37,31.2a3.229,3.229,0,0,1-1.239-3.253,49.468,49.468,0,0,1,1.859-7.435c1.085-3.1,2.633-8.365,4.8-15.8.93-3.1,1.7-5.112,2.014-6.661.62-1.239.93-2.324,1.394-3.1A2.842,2.842,0,0,1,46.917-6.592Zm63.357-.62a7.3,7.3,0,0,1,4.8-.465A6.609,6.609,0,0,1,119.414-5.2c.62.774,2.478,4.337,5.731,10.379q4.647,9.295,7.9,16.73a15.648,15.648,0,0,1,1.7,5.267,6.339,6.339,0,0,1-.62,3.718,4.933,4.933,0,0,1-1.7,1.859,6.173,6.173,0,0,1-2.633.465,3.644,3.644,0,0,1-2.633-.93,27.619,27.619,0,0,1-2.943-4.492,13.719,13.719,0,0,0-2.943-4.337c-.774-.31-3.408-.31-8.21.155-2.789.155-4.8.465-6.041.62a5.887,5.887,0,0,0-2.633,1.084,9.709,9.709,0,0,0-2.324,2.943A32.731,32.731,0,0,1,98.811,32.6a3.659,3.659,0,0,1-2.478.62,7.588,7.588,0,0,1-2.014-.155,8.949,8.949,0,0,1-1.549-1.239c-1.394-1.239-1.7-2.789-1.084-4.8.465-2.014,2.943-7.435,7.28-16.265C104.233-.087,107.951-5.973,110.274-7.212ZM113.992,5.18a2.392,2.392,0,0,0-.929-.465c-.31,0-.775.465-1.549,1.859a29.809,29.809,0,0,0-2.324,4.493c-.774,1.549-1.084,2.633-.774,3.1s1.239.62,2.943.62c3.408,0,5.266-.62,5.422-1.549a3.463,3.463,0,0,0-.465-2.168c-.309-1.085-.774-2.324-1.239-3.563C114.612,6.42,114.147,5.645,113.992,5.18Zm29.278-12.7c.775-.31,2.789-.465,6.2-.465,3.253.155,5.887.31,7.591.465,6.816,1.084,11,4.182,12.393,9.295a15.355,15.355,0,0,1,.774,3.872,9.89,9.89,0,0,1-.774,3.718,8.479,8.479,0,0,1-1.394,2.943,13.923,13.923,0,0,1-2.479,2.789,16.406,16.406,0,0,1-3.1,1.859c-1.239.62-2.014,1.084-2.014,1.549,0,.31,1.239,1.549,3.718,3.563,2.788,2.324,4.492,4.182,5.112,5.731a3.1,3.1,0,0,1-.62,3.872c-.619.775-1.7,1.085-3.253,1.085a8.124,8.124,0,0,1-4.028-1.239,33.652,33.652,0,0,1-6.2-4.8,19.15,19.15,0,0,0-3.873-3.1c-.309,0-.465.62-.465,1.7q0,4.183-1.394,6.041a5.516,5.516,0,0,1-4.493,1.859c-1.549,0-2.478-.155-2.943-.774-.62-.93-1.085-4.337-1.239-10.069-.155-1.239-.155-3.408-.31-6.506-.155-9.6-.31-15.646-.155-17.969a7.591,7.591,0,0,1,.775-3.563A4.271,4.271,0,0,1,143.27-7.522Zm13.942,8.829a17.711,17.711,0,0,0-4.337-.465c-1.549,0-2.633.155-2.788.465-.31.31-.31,2.014-.31,5.112q0,4.414.465,5.112c.155.31.775.465,1.7.31a8.608,8.608,0,0,0,3.253-.93,10.981,10.981,0,0,0,4.337-3.253,4.713,4.713,0,0,0,.93-3.872A4.666,4.666,0,0,0,157.211,1.307Zm21.067-8.829c1.085-.31,4.957-.31,11.308-.31,6.506,0,11.463.155,15.181.31,3.408.155,5.422.31,6.351.465a3.308,3.308,0,0,1,1.859,1.084,6.184,6.184,0,0,1,.62,3.718c0,2.014-.465,3.253-1.549,3.872A18.658,18.658,0,0,1,205.7,2.7l-5.267.31-.31,13.942v.775c-.155,7.9-.465,12.392-.93,13.631q-.465,1.859-3.718,1.859h-.31c-2.324,0-3.718-.31-4.337-.93q-.93-1.162-1.394-5.112c-.155-2.943-.31-7.126-.465-12.858-.155-5.886-.31-9.295-.465-9.914l-.155-1.395-5.422-.465a39.776,39.776,0,0,1-4.647-.465A4.012,4.012,0,0,1,176.575,1a5.335,5.335,0,0,1-1.084-3.718C175.491-5.663,176.265-7.367,178.279-7.522Zm69.244,0a9.416,9.416,0,0,1,2.943-.155,3.036,3.036,0,0,1,2.168,1.239,8.588,8.588,0,0,1,1.549,3.563q5.112,17.659,6.041,17.659c.465,0,1.084-1.394,2.324-4.183C265.8,3.167,267.97-.861,269.209-1.945a7.453,7.453,0,0,1,3.253-.62,5.368,5.368,0,0,1,3.1.465c.93.774,3.563,5.887,7.9,15.646.62,1.7,1.239,2.478,1.7,2.478q.93,0,2.324-9.294l.62-4.028c.31-1.859.464-3.253.62-4.337a17.982,17.982,0,0,1,.619-2.788c.31-.93.465-1.549.62-2.014l.93-.93a1.759,1.759,0,0,1,1.239-.465,4.809,4.809,0,0,1,1.7-.155,4.988,4.988,0,0,1,3.1,1.085,3.309,3.309,0,0,1,1.239,2.633,74.32,74.32,0,0,1-1.859,13.787A147.629,147.629,0,0,1,292.6,25.473a32.088,32.088,0,0,1-2.633,6.351,4.309,4.309,0,0,1-3.718,1.394c-1.859,0-3.408-.31-4.337-1.394-.93-.93-2.168-3.253-3.873-7.126-2.014-4.492-3.408-7.59-4.028-9.449a8.282,8.282,0,0,0-.929-2.014c-.31-.465-.62-.774-.775-.62-.31,0-1.239,2.014-2.788,5.731-3.253,7.746-5.577,12.393-7.281,13.787a4.186,4.186,0,0,1-3.253,1.084,5.082,5.082,0,0,1-3.408-1.394,7.382,7.382,0,0,1-1.859-3.253c-.62-1.7-1.859-5.577-3.563-11.463C247.213,6.73,245.509.533,244.889-1.636c-.31-2.014-.31-3.408.155-4.028A4.276,4.276,0,0,1,247.522-7.522Zm74.665.31a7.3,7.3,0,0,1,4.8-.465A6.607,6.607,0,0,1,331.327-5.2c.775.774,2.634,4.337,5.731,10.379,3.1,6.2,5.732,11.773,8.056,16.73a20.261,20.261,0,0,1,1.7,5.267,6.478,6.478,0,0,1-.775,3.718,6.2,6.2,0,0,1-1.549,1.859,6.967,6.967,0,0,1-2.789.465,3.909,3.909,0,0,1-2.633-.93,30.438,30.438,0,0,1-2.788-4.492c-1.394-2.479-2.324-3.873-3.1-4.337-.62-.31-3.408-.31-8.055.155-2.943.155-4.957.465-6.2.62a6.759,6.759,0,0,0-2.633,1.084,12.9,12.9,0,0,0-2.324,2.943c-1.549,2.324-2.633,3.718-3.1,4.337a4.141,4.141,0,0,1-2.633.62,6.4,6.4,0,0,1-1.859-.155,5.936,5.936,0,0,1-1.7-1.239c-1.394-1.239-1.7-2.789-1.084-4.8s2.943-7.435,7.281-16.265C316.147-.087,320.019-5.973,322.188-7.212ZM325.905,5.18a1.339,1.339,0,0,0-.93-.465c-.31,0-.774.465-1.394,1.859a20.15,20.15,0,0,0-2.478,4.493c-.775,1.549-.93,2.633-.62,3.1.155.465,1.239.62,2.943.62,3.408,0,5.112-.62,5.422-1.549a6.693,6.693,0,0,0-.62-2.168A19.612,19.612,0,0,0,326.99,7.5C326.525,6.42,326.06,5.645,325.905,5.18Zm57.626-9.6c2.168-2.168,3.718-3.253,4.647-3.563,1.084-.155,2.324.31,3.563,1.7a4.813,4.813,0,0,1,1.7,3.253A7.393,7.393,0,0,1,391.9.843a17.463,17.463,0,0,1-3.253,3.718A39.42,39.42,0,0,1,382.6,8.743l-3.873,2.633-.31,9.294c0,2.169-.155,3.873-.155,5.112a27.759,27.759,0,0,1-.31,3.408c-.31,1.084-.464,1.859-.62,2.168-.31.465-.464.93-1.084,1.239a2.778,2.778,0,0,1-1.394.62h-2.324a8.248,8.248,0,0,1-2.169-.155,4.277,4.277,0,0,1-1.394-1.085,5.327,5.327,0,0,1-1.394-3.408c-.155-1.394-.31-4.492-.31-9.295V11.531l-3.253-1.7a38.222,38.222,0,0,1-8.829-6.351c-2.324-2.169-3.408-4.183-3.408-5.887a4.874,4.874,0,0,1,1.239-2.943,3.854,3.854,0,0,1,2.633-1.859,3.77,3.77,0,0,1,1.859,0,7.837,7.837,0,0,1,2.014,1.239,18.5,18.5,0,0,1,3.408,2.633A35.315,35.315,0,0,0,368.04.378a9.486,9.486,0,0,0,3.718,1.084C375.166,1.927,379.039-.087,383.531-4.424Z" transform="translate(-0.337 8.125)" fill="#fff" stroke="#2a2929" stroke-width="0.216" fill-rule="evenodd"/></svg>